<mxfile host="65bd71144e">
    <diagram id="Kf3t33IugnDqMmhTQcln" name="ページ1">
        <mxGraphModel dx="1843" dy="1992" grid="1" gridSize="10" guides="1" tooltips="1" connect="1" arrows="1" fold="1" page="1" pageScale="1" pageWidth="850" pageHeight="1100" math="0" shadow="0">
            <root>
                <mxCell id="0"/>
                <mxCell id="1" parent="0"/>
                <mxCell id="2" value="users" style="shape=table;startSize=30;container=1;collapsible=0;childLayout=tableLayout;fontStyle=1;align=center;fillColor=none;" parent="1" vertex="1">
                    <mxGeometry x="690" y="210" width="240" height="320" as="geometry"/>
                </mxCell>
                <mxCell id="3" value="" style="shape=partialRectangle;whiteSpace=wrap;collapsible=0;dropTarget=0;pointerEvents=0;fillColor=none;top=0;left=0;bottom=0;right=0;points=[[0,0.5],[1,0.5]];portConstraint=eastwest;" parent="2" vertex="1">
                    <mxGeometry y="30" width="240" height="40" as="geometry"/>
                </mxCell>
                <mxCell id="4" value="PK" style="shape=partialRectangle;whiteSpace=wrap;connectable=0;fillColor=none;top=0;left=0;bottom=0;right=0;overflow=hidden;" parent="3" vertex="1">
                    <mxGeometry width="52" height="40" as="geometry"/>
                </mxCell>
                <mxCell id="5" value="id" style="shape=partialRectangle;whiteSpace=wrap;connectable=0;fillColor=none;top=0;left=0;bottom=0;right=0;overflow=hidden;" parent="3" vertex="1">
                    <mxGeometry x="52" width="125" height="40" as="geometry"/>
                </mxCell>
                <mxCell id="6" value="int" style="shape=partialRectangle;whiteSpace=wrap;connectable=0;fillColor=none;top=0;left=0;bottom=0;right=0;overflow=hidden;" parent="3" vertex="1">
                    <mxGeometry x="177" width="63" height="40" as="geometry"/>
                </mxCell>
                <mxCell id="7" value="" style="shape=partialRectangle;whiteSpace=wrap;collapsible=0;dropTarget=0;pointerEvents=0;fillColor=none;top=0;left=0;bottom=0;right=0;points=[[0,0.5],[1,0.5]];portConstraint=eastwest;" parent="2" vertex="1">
                    <mxGeometry y="70" width="240" height="40" as="geometry"/>
                </mxCell>
                <mxCell id="8" value="" style="shape=partialRectangle;whiteSpace=wrap;connectable=0;fillColor=none;top=0;left=0;bottom=0;right=0;overflow=hidden;" parent="7" vertex="1">
                    <mxGeometry width="52" height="40" as="geometry"/>
                </mxCell>
                <mxCell id="9" value="created_at" style="shape=partialRectangle;whiteSpace=wrap;connectable=0;fillColor=none;top=0;left=0;bottom=0;right=0;overflow=hidden;" parent="7" vertex="1">
                    <mxGeometry x="52" width="125" height="40" as="geometry"/>
                </mxCell>
                <mxCell id="10" value="datetime" style="shape=partialRectangle;whiteSpace=wrap;connectable=0;fillColor=none;top=0;left=0;bottom=0;right=0;overflow=hidden;" parent="7" vertex="1">
                    <mxGeometry x="177" width="63" height="40" as="geometry"/>
                </mxCell>
                <mxCell id="11" value="" style="shape=partialRectangle;whiteSpace=wrap;collapsible=0;dropTarget=0;pointerEvents=0;fillColor=none;top=0;left=0;bottom=0;right=0;points=[[0,0.5],[1,0.5]];portConstraint=eastwest;" parent="2" vertex="1">
                    <mxGeometry y="110" width="240" height="40" as="geometry"/>
                </mxCell>
                <mxCell id="12" value="" style="shape=partialRectangle;whiteSpace=wrap;connectable=0;fillColor=none;top=0;left=0;bottom=0;right=0;overflow=hidden;" parent="11" vertex="1">
                    <mxGeometry width="52" height="40" as="geometry"/>
                </mxCell>
                <mxCell id="13" value="updated_at" style="shape=partialRectangle;whiteSpace=wrap;connectable=0;fillColor=none;top=0;left=0;bottom=0;right=0;overflow=hidden;" parent="11" vertex="1">
                    <mxGeometry x="52" width="125" height="40" as="geometry"/>
                </mxCell>
                <mxCell id="14" value="datetime" style="shape=partialRectangle;whiteSpace=wrap;connectable=0;fillColor=none;top=0;left=0;bottom=0;right=0;overflow=hidden;" parent="11" vertex="1">
                    <mxGeometry x="177" width="63" height="40" as="geometry"/>
                </mxCell>
                <mxCell id="15" value="" style="shape=partialRectangle;whiteSpace=wrap;collapsible=0;dropTarget=0;pointerEvents=0;fillColor=none;top=0;left=0;bottom=0;right=0;points=[[0,0.5],[1,0.5]];portConstraint=eastwest;" parent="2" vertex="1">
                    <mxGeometry y="150" width="240" height="40" as="geometry"/>
                </mxCell>
                <mxCell id="16" value="" style="shape=partialRectangle;whiteSpace=wrap;connectable=0;fillColor=none;top=0;left=0;bottom=0;right=0;overflow=hidden;" parent="15" vertex="1">
                    <mxGeometry width="52" height="40" as="geometry"/>
                </mxCell>
                <mxCell id="17" value="deleted_at" style="shape=partialRectangle;whiteSpace=wrap;connectable=0;fillColor=none;top=0;left=0;bottom=0;right=0;overflow=hidden;" parent="15" vertex="1">
                    <mxGeometry x="52" width="125" height="40" as="geometry"/>
                </mxCell>
                <mxCell id="18" value="datetime" style="shape=partialRectangle;whiteSpace=wrap;connectable=0;fillColor=none;top=0;left=0;bottom=0;right=0;overflow=hidden;" parent="15" vertex="1">
                    <mxGeometry x="177" width="63" height="40" as="geometry"/>
                </mxCell>
                <mxCell id="19" value="" style="shape=partialRectangle;whiteSpace=wrap;collapsible=0;dropTarget=0;pointerEvents=0;fillColor=none;top=0;left=0;bottom=0;right=0;points=[[0,0.5],[1,0.5]];portConstraint=eastwest;" parent="2" vertex="1">
                    <mxGeometry y="190" width="240" height="50" as="geometry"/>
                </mxCell>
                <mxCell id="20" value="" style="shape=partialRectangle;whiteSpace=wrap;connectable=0;fillColor=none;top=0;left=0;bottom=0;right=0;overflow=hidden;" parent="19" vertex="1">
                    <mxGeometry width="52" height="50" as="geometry"/>
                </mxCell>
                <mxCell id="21" value="username" style="shape=partialRectangle;whiteSpace=wrap;connectable=0;fillColor=none;top=0;left=0;bottom=0;right=0;overflow=hidden;" parent="19" vertex="1">
                    <mxGeometry x="52" width="125" height="50" as="geometry"/>
                </mxCell>
                <mxCell id="22" value="varchar" style="shape=partialRectangle;whiteSpace=wrap;connectable=0;fillColor=none;top=0;left=0;bottom=0;right=0;overflow=hidden;" parent="19" vertex="1">
                    <mxGeometry x="177" width="63" height="50" as="geometry"/>
                </mxCell>
                <mxCell id="23" value="" style="shape=partialRectangle;whiteSpace=wrap;collapsible=0;dropTarget=0;pointerEvents=0;fillColor=none;top=0;left=0;bottom=0;right=0;points=[[0,0.5],[1,0.5]];portConstraint=eastwest;" parent="2" vertex="1">
                    <mxGeometry y="240" width="240" height="40" as="geometry"/>
                </mxCell>
                <mxCell id="24" value="" style="shape=partialRectangle;whiteSpace=wrap;connectable=0;fillColor=none;top=0;left=0;bottom=0;right=0;overflow=hidden;" parent="23" vertex="1">
                    <mxGeometry width="52" height="40" as="geometry"/>
                </mxCell>
                <mxCell id="25" value="email" style="shape=partialRectangle;whiteSpace=wrap;connectable=0;fillColor=none;top=0;left=0;bottom=0;right=0;overflow=hidden;" parent="23" vertex="1">
                    <mxGeometry x="52" width="125" height="40" as="geometry"/>
                </mxCell>
                <mxCell id="26" value="varchar" style="shape=partialRectangle;whiteSpace=wrap;connectable=0;fillColor=none;top=0;left=0;bottom=0;right=0;overflow=hidden;" parent="23" vertex="1">
                    <mxGeometry x="177" width="63" height="40" as="geometry"/>
                </mxCell>
                <mxCell id="27" value="" style="shape=partialRectangle;whiteSpace=wrap;collapsible=0;dropTarget=0;pointerEvents=0;fillColor=none;top=0;left=0;bottom=0;right=0;points=[[0,0.5],[1,0.5]];portConstraint=eastwest;" parent="2" vertex="1">
                    <mxGeometry y="280" width="240" height="40" as="geometry"/>
                </mxCell>
                <mxCell id="28" value="" style="shape=partialRectangle;whiteSpace=wrap;connectable=0;fillColor=none;top=0;left=0;bottom=0;right=0;overflow=hidden;" parent="27" vertex="1">
                    <mxGeometry width="52" height="40" as="geometry"/>
                </mxCell>
                <mxCell id="29" value="password_digest" style="shape=partialRectangle;whiteSpace=wrap;connectable=0;fillColor=none;top=0;left=0;bottom=0;right=0;overflow=hidden;" parent="27" vertex="1">
                    <mxGeometry x="52" width="125" height="40" as="geometry"/>
                </mxCell>
                <mxCell id="30" value="varchar" style="shape=partialRectangle;whiteSpace=wrap;connectable=0;fillColor=none;top=0;left=0;bottom=0;right=0;overflow=hidden;" parent="27" vertex="1">
                    <mxGeometry x="177" width="63" height="40" as="geometry"/>
                </mxCell>
                <mxCell id="31" value="get_id_log" style="shape=table;startSize=30;container=1;collapsible=0;childLayout=tableLayout;fontStyle=1;align=center;fillColor=none;" parent="1" vertex="1">
                    <mxGeometry x="390" y="110" width="240" height="280" as="geometry"/>
                </mxCell>
                <mxCell id="32" value="" style="shape=partialRectangle;whiteSpace=wrap;collapsible=0;dropTarget=0;pointerEvents=0;fillColor=none;top=0;left=0;bottom=0;right=0;points=[[0,0.5],[1,0.5]];portConstraint=eastwest;" parent="31" vertex="1">
                    <mxGeometry y="30" width="240" height="40" as="geometry"/>
                </mxCell>
                <mxCell id="33" value="PK" style="shape=partialRectangle;whiteSpace=wrap;connectable=0;fillColor=none;top=0;left=0;bottom=0;right=0;overflow=hidden;" parent="32" vertex="1">
                    <mxGeometry width="52" height="40" as="geometry"/>
                </mxCell>
                <mxCell id="34" value="id" style="shape=partialRectangle;whiteSpace=wrap;connectable=0;fillColor=none;top=0;left=0;bottom=0;right=0;overflow=hidden;" parent="32" vertex="1">
                    <mxGeometry x="52" width="125" height="40" as="geometry"/>
                </mxCell>
                <mxCell id="35" value="int" style="shape=partialRectangle;whiteSpace=wrap;connectable=0;fillColor=none;top=0;left=0;bottom=0;right=0;overflow=hidden;" parent="32" vertex="1">
                    <mxGeometry x="177" width="63" height="40" as="geometry"/>
                </mxCell>
                <mxCell id="36" value="" style="shape=partialRectangle;whiteSpace=wrap;collapsible=0;dropTarget=0;pointerEvents=0;fillColor=none;top=0;left=0;bottom=0;right=0;points=[[0,0.5],[1,0.5]];portConstraint=eastwest;" parent="31" vertex="1">
                    <mxGeometry y="70" width="240" height="40" as="geometry"/>
                </mxCell>
                <mxCell id="37" value="" style="shape=partialRectangle;whiteSpace=wrap;connectable=0;fillColor=none;top=0;left=0;bottom=0;right=0;overflow=hidden;" parent="36" vertex="1">
                    <mxGeometry width="52" height="40" as="geometry"/>
                </mxCell>
                <mxCell id="38" value="created_at" style="shape=partialRectangle;whiteSpace=wrap;connectable=0;fillColor=none;top=0;left=0;bottom=0;right=0;overflow=hidden;" parent="36" vertex="1">
                    <mxGeometry x="52" width="125" height="40" as="geometry"/>
                </mxCell>
                <mxCell id="39" value="datetime" style="shape=partialRectangle;whiteSpace=wrap;connectable=0;fillColor=none;top=0;left=0;bottom=0;right=0;overflow=hidden;" parent="36" vertex="1">
                    <mxGeometry x="177" width="63" height="40" as="geometry"/>
                </mxCell>
                <mxCell id="40" value="" style="shape=partialRectangle;whiteSpace=wrap;collapsible=0;dropTarget=0;pointerEvents=0;fillColor=none;top=0;left=0;bottom=0;right=0;points=[[0,0.5],[1,0.5]];portConstraint=eastwest;" parent="31" vertex="1">
                    <mxGeometry y="110" width="240" height="40" as="geometry"/>
                </mxCell>
                <mxCell id="41" value="" style="shape=partialRectangle;whiteSpace=wrap;connectable=0;fillColor=none;top=0;left=0;bottom=0;right=0;overflow=hidden;" parent="40" vertex="1">
                    <mxGeometry width="52" height="40" as="geometry"/>
                </mxCell>
                <mxCell id="42" value="updated_at" style="shape=partialRectangle;whiteSpace=wrap;connectable=0;fillColor=none;top=0;left=0;bottom=0;right=0;overflow=hidden;" parent="40" vertex="1">
                    <mxGeometry x="52" width="125" height="40" as="geometry"/>
                </mxCell>
                <mxCell id="43" value="datetime" style="shape=partialRectangle;whiteSpace=wrap;connectable=0;fillColor=none;top=0;left=0;bottom=0;right=0;overflow=hidden;" parent="40" vertex="1">
                    <mxGeometry x="177" width="63" height="40" as="geometry"/>
                </mxCell>
                <mxCell id="44" value="" style="shape=partialRectangle;whiteSpace=wrap;collapsible=0;dropTarget=0;pointerEvents=0;fillColor=none;top=0;left=0;bottom=0;right=0;points=[[0,0.5],[1,0.5]];portConstraint=eastwest;" parent="31" vertex="1">
                    <mxGeometry y="150" width="240" height="40" as="geometry"/>
                </mxCell>
                <mxCell id="45" value="" style="shape=partialRectangle;whiteSpace=wrap;connectable=0;fillColor=none;top=0;left=0;bottom=0;right=0;overflow=hidden;" parent="44" vertex="1">
                    <mxGeometry width="52" height="40" as="geometry"/>
                </mxCell>
                <mxCell id="46" value="deleted_at" style="shape=partialRectangle;whiteSpace=wrap;connectable=0;fillColor=none;top=0;left=0;bottom=0;right=0;overflow=hidden;" parent="44" vertex="1">
                    <mxGeometry x="52" width="125" height="40" as="geometry"/>
                </mxCell>
                <mxCell id="47" value="datetime" style="shape=partialRectangle;whiteSpace=wrap;connectable=0;fillColor=none;top=0;left=0;bottom=0;right=0;overflow=hidden;" parent="44" vertex="1">
                    <mxGeometry x="177" width="63" height="40" as="geometry"/>
                </mxCell>
                <mxCell id="48" value="" style="shape=partialRectangle;whiteSpace=wrap;collapsible=0;dropTarget=0;pointerEvents=0;fillColor=none;top=0;left=0;bottom=0;right=0;points=[[0,0.5],[1,0.5]];portConstraint=eastwest;" parent="31" vertex="1">
                    <mxGeometry y="190" width="240" height="50" as="geometry"/>
                </mxCell>
                <mxCell id="49" value="FK" style="shape=partialRectangle;whiteSpace=wrap;connectable=0;fillColor=none;top=0;left=0;bottom=0;right=0;overflow=hidden;" parent="48" vertex="1">
                    <mxGeometry width="52" height="50" as="geometry"/>
                </mxCell>
                <mxCell id="50" value="user_id" style="shape=partialRectangle;whiteSpace=wrap;connectable=0;fillColor=none;top=0;left=0;bottom=0;right=0;overflow=hidden;" parent="48" vertex="1">
                    <mxGeometry x="52" width="125" height="50" as="geometry"/>
                </mxCell>
                <mxCell id="51" value="int" style="shape=partialRectangle;whiteSpace=wrap;connectable=0;fillColor=none;top=0;left=0;bottom=0;right=0;overflow=hidden;" parent="48" vertex="1">
                    <mxGeometry x="177" width="63" height="50" as="geometry"/>
                </mxCell>
                <mxCell id="52" value="" style="shape=partialRectangle;whiteSpace=wrap;collapsible=0;dropTarget=0;pointerEvents=0;fillColor=none;top=0;left=0;bottom=0;right=0;points=[[0,0.5],[1,0.5]];portConstraint=eastwest;" parent="31" vertex="1">
                    <mxGeometry y="240" width="240" height="40" as="geometry"/>
                </mxCell>
                <mxCell id="53" value="" style="shape=partialRectangle;whiteSpace=wrap;connectable=0;fillColor=none;top=0;left=0;bottom=0;right=0;overflow=hidden;" parent="52" vertex="1">
                    <mxGeometry width="52" height="40" as="geometry"/>
                </mxCell>
                <mxCell id="54" value="conc_data_id" style="shape=partialRectangle;whiteSpace=wrap;connectable=0;fillColor=none;top=0;left=0;bottom=0;right=0;overflow=hidden;" parent="52" vertex="1">
                    <mxGeometry x="52" width="125" height="40" as="geometry"/>
                </mxCell>
                <mxCell id="55" value="char" style="shape=partialRectangle;whiteSpace=wrap;connectable=0;fillColor=none;top=0;left=0;bottom=0;right=0;overflow=hidden;" parent="52" vertex="1">
                    <mxGeometry x="177" width="63" height="40" as="geometry"/>
                </mxCell>
                <mxCell id="63" value="" style="edgeStyle=entityRelationEdgeStyle;fontSize=12;endArrow=ERzeroToMany;startArrow=ERone;endFill=1;entryX=1;entryY=0.5;entryDx=0;entryDy=0;exitX=0;exitY=0.5;exitDx=0;exitDy=0;startFill=0;" parent="1" source="3" target="48" edge="1">
                    <mxGeometry width="100" height="100" relative="1" as="geometry">
                        <mxPoint x="270" y="420" as="sourcePoint"/>
                        <mxPoint x="420" y="580" as="targetPoint"/>
                    </mxGeometry>
                </mxCell>
                <mxCell id="64" value="gotoConc&#10;&#10;{&#10;    _id: objectID,&#10;    type: string,&#10;    userid: int,&#10;    measurement: string,&#10;    work: string,&#10;    memo: string,&#10;    concentration: {&#10;        c1: []float,&#10;        c2: []float,&#10;        c3: []float,&#10;        w: []float,&#10;        date: []date,&#10;        max_freq_id: objectID,&#10;        min_freq_id: objectID,&#10;        environment_id: objectID,&#10;        _face_point_id: objectID&#10;    }&#10;}" style="shape=note;size=20;fillColor=none;align=left;" parent="1" vertex="1">
                    <mxGeometry x="780" y="550" width="190" height="300" as="geometry"/>
                </mxCell>
                <mxCell id="68" value="maxFrequency&#10;&#10;{&#10;    _id: objectID,&#10;    userid: int,&#10;    maxfrequencydata: {&#10;        maxblink: float,&#10;        maxfacemove: float,&#10;        facepointall: []float,&#10;    },&#10;    date: date&#10;}" style="shape=note;size=20;fillColor=none;align=left;" parent="1" vertex="1">
                    <mxGeometry x="140" y="450" width="150" height="200" as="geometry"/>
                </mxCell>
                <mxCell id="69" value="minFrequency&#10;&#10;{&#10;    _id: objectID,&#10;    userid: int,&#10;    minfrequencydata: {&#10;        minblink: float,&#10;        minfacemove: float,&#10;        facepointall: []float&#10;    },&#10;    date: date&#10;}" style="shape=note;size=20;fillColor=none;align=left;" parent="1" vertex="1">
                    <mxGeometry x="140" y="660" width="150" height="190" as="geometry"/>
                </mxCell>
                <mxCell id="70" value="facePoint&#10;&#10;{&#10;    _id: objectID,&#10;    face_point_all: []float &#10;} " style="shape=note;size=20;fillColor=none;align=left;" parent="1" vertex="1">
                    <mxGeometry x="570" y="730" width="130" height="120" as="geometry"/>
                </mxCell>
                <mxCell id="72" value="environment&#10;&#10;{&#10;    _id: objectID,&#10;    name: string,&#10;    userid: int,&#10;    earid: objectID,&#10;    max_freq_id: objectID,&#10;    min_freq_id: objectID,&#10;    date: date&#10;}" style="shape=note;size=20;fillColor=none;align=left;" parent="1" vertex="1">
                    <mxGeometry x="420" y="450" width="150" height="185" as="geometry"/>
                </mxCell>
                <mxCell id="73" value="ear&#10;&#10;{&#10;    _id: objectID,&#10;    name: string,&#10;    userid: int,&#10;    leftear: float,&#10;    rightear: float,&#10;    date: date&#10;}" style="shape=note;size=20;fillColor=none;align=left;" parent="1" vertex="1">
                    <mxGeometry x="375" y="670" width="140" height="180" as="geometry"/>
                </mxCell>
                <mxCell id="75" style="edgeStyle=none;html=1;exitX=1;exitY=0.5;exitDx=0;exitDy=0;startArrow=ERone;startFill=0;endArrow=ERone;endFill=0;entryX=0.002;entryY=0.198;entryDx=0;entryDy=0;entryPerimeter=0;" parent="1" source="52" target="64" edge="1">
                    <mxGeometry relative="1" as="geometry">
                        <Array as="points">
                            <mxPoint x="670" y="370"/>
                            <mxPoint x="670" y="610"/>
                        </Array>
                        <mxPoint x="760" y="457" as="targetPoint"/>
                    </mxGeometry>
                </mxCell>
                <mxCell id="78" style="edgeStyle=none;html=1;exitX=0;exitY=0.5;exitDx=0;exitDy=0;startArrow=ERone;startFill=0;endArrow=ERzeroToMany;endFill=1;entryX=1.002;entryY=0.285;entryDx=0;entryDy=0;entryPerimeter=0;" parent="1" source="3" target="72" edge="1">
                    <mxGeometry relative="1" as="geometry">
                        <Array as="points">
                            <mxPoint x="660" y="260"/>
                            <mxPoint x="660" y="400"/>
                            <mxPoint x="650" y="400"/>
                            <mxPoint x="650" y="503"/>
                        </Array>
                        <mxPoint x="610" y="500" as="targetPoint"/>
                    </mxGeometry>
                </mxCell>
                <mxCell id="79" style="edgeStyle=none;html=1;startArrow=ERone;startFill=0;endArrow=ERone;endFill=0;entryX=-0.005;entryY=0.84;entryDx=0;entryDy=0;entryPerimeter=0;" parent="1" edge="1" target="64">
                    <mxGeometry relative="1" as="geometry">
                        <mxPoint x="570" y="470" as="sourcePoint"/>
                        <mxPoint x="780" y="790" as="targetPoint"/>
                        <Array as="points">
                            <mxPoint x="670" y="470"/>
                            <mxPoint x="670" y="670"/>
                            <mxPoint x="750" y="670"/>
                            <mxPoint x="750" y="802"/>
                        </Array>
                    </mxGeometry>
                </mxCell>
                <mxCell id="80" style="edgeStyle=none;html=1;startArrow=ERone;startFill=0;endArrow=ERzeroToMany;endFill=1;exitX=1.004;exitY=0.598;exitDx=0;exitDy=0;exitPerimeter=0;entryX=1.005;entryY=0.385;entryDx=0;entryDy=0;entryPerimeter=0;" parent="1" source="72" target="73" edge="1">
                    <mxGeometry relative="1" as="geometry">
                        <mxPoint x="532" y="517" as="sourcePoint"/>
                        <mxPoint x="666.5799999999999" y="330.27" as="targetPoint"/>
                        <Array as="points">
                            <mxPoint x="590" y="561"/>
                            <mxPoint x="590" y="700"/>
                            <mxPoint x="560" y="700"/>
                            <mxPoint x="560" y="740"/>
                        </Array>
                    </mxGeometry>
                </mxCell>
                <mxCell id="81" style="edgeStyle=none;html=1;startArrow=ERone;startFill=0;endArrow=ERone;endFill=0;" parent="1" edge="1" source="70">
                    <mxGeometry relative="1" as="geometry">
                        <mxPoint x="740" y="780" as="sourcePoint"/>
                        <mxPoint x="781" y="815" as="targetPoint"/>
                        <Array as="points">
                            <mxPoint x="740" y="790"/>
                            <mxPoint x="740" y="815"/>
                        </Array>
                    </mxGeometry>
                </mxCell>
                <mxCell id="82" style="edgeStyle=none;html=1;startArrow=ERone;startFill=0;endArrow=ERzeroToMany;endFill=1;exitX=-0.007;exitY=0.649;exitDx=0;exitDy=0;exitPerimeter=0;" parent="1" source="72" edge="1">
                    <mxGeometry relative="1" as="geometry">
                        <mxPoint x="370" y="519" as="sourcePoint"/>
                        <mxPoint x="290" y="519" as="targetPoint"/>
                        <Array as="points">
                            <mxPoint x="360" y="570"/>
                            <mxPoint x="360" y="519"/>
                        </Array>
                    </mxGeometry>
                </mxCell>
                <mxCell id="83" style="edgeStyle=none;html=1;entryX=1.011;entryY=0.305;entryDx=0;entryDy=0;entryPerimeter=0;startArrow=ERone;startFill=0;endArrow=ERzeroToMany;endFill=1;" parent="1" target="69" edge="1">
                    <mxGeometry relative="1" as="geometry">
                        <mxPoint x="420" y="552" as="sourcePoint"/>
                        <mxPoint x="677.25" y="487.4000000000001" as="targetPoint"/>
                        <Array as="points">
                            <mxPoint x="330" y="552"/>
                            <mxPoint x="330" y="720"/>
                        </Array>
                    </mxGeometry>
                </mxCell>
                <mxCell id="84" value="answer_results" style="shape=table;startSize=30;container=1;collapsible=0;childLayout=tableLayout;fontStyle=1;align=center;fillColor=none;" parent="1" vertex="1">
                    <mxGeometry x="1110" y="-400" width="240" height="550" as="geometry"/>
                </mxCell>
                <mxCell id="85" value="" style="shape=partialRectangle;whiteSpace=wrap;collapsible=0;dropTarget=0;pointerEvents=0;fillColor=none;top=0;left=0;bottom=0;right=0;points=[[0,0.5],[1,0.5]];portConstraint=eastwest;" parent="84" vertex="1">
                    <mxGeometry y="30" width="240" height="40" as="geometry"/>
                </mxCell>
                <mxCell id="86" value="PK" style="shape=partialRectangle;whiteSpace=wrap;connectable=0;fillColor=none;top=0;left=0;bottom=0;right=0;overflow=hidden;" parent="85" vertex="1">
                    <mxGeometry width="52" height="40" as="geometry"/>
                </mxCell>
                <mxCell id="87" value="id" style="shape=partialRectangle;whiteSpace=wrap;connectable=0;fillColor=none;top=0;left=0;bottom=0;right=0;overflow=hidden;" parent="85" vertex="1">
                    <mxGeometry x="52" width="125" height="40" as="geometry"/>
                </mxCell>
                <mxCell id="88" value="int" style="shape=partialRectangle;whiteSpace=wrap;connectable=0;fillColor=none;top=0;left=0;bottom=0;right=0;overflow=hidden;" parent="85" vertex="1">
                    <mxGeometry x="177" width="63" height="40" as="geometry"/>
                </mxCell>
                <mxCell id="89" value="" style="shape=partialRectangle;whiteSpace=wrap;collapsible=0;dropTarget=0;pointerEvents=0;fillColor=none;top=0;left=0;bottom=0;right=0;points=[[0,0.5],[1,0.5]];portConstraint=eastwest;" parent="84" vertex="1">
                    <mxGeometry y="70" width="240" height="40" as="geometry"/>
                </mxCell>
                <mxCell id="90" value="" style="shape=partialRectangle;whiteSpace=wrap;connectable=0;fillColor=none;top=0;left=0;bottom=0;right=0;overflow=hidden;" parent="89" vertex="1">
                    <mxGeometry width="52" height="40" as="geometry"/>
                </mxCell>
                <mxCell id="91" value="created_at" style="shape=partialRectangle;whiteSpace=wrap;connectable=0;fillColor=none;top=0;left=0;bottom=0;right=0;overflow=hidden;" parent="89" vertex="1">
                    <mxGeometry x="52" width="125" height="40" as="geometry"/>
                </mxCell>
                <mxCell id="92" value="datetime" style="shape=partialRectangle;whiteSpace=wrap;connectable=0;fillColor=none;top=0;left=0;bottom=0;right=0;overflow=hidden;" parent="89" vertex="1">
                    <mxGeometry x="177" width="63" height="40" as="geometry"/>
                </mxCell>
                <mxCell id="93" value="" style="shape=partialRectangle;whiteSpace=wrap;collapsible=0;dropTarget=0;pointerEvents=0;fillColor=none;top=0;left=0;bottom=0;right=0;points=[[0,0.5],[1,0.5]];portConstraint=eastwest;" parent="84" vertex="1">
                    <mxGeometry y="110" width="240" height="40" as="geometry"/>
                </mxCell>
                <mxCell id="94" value="" style="shape=partialRectangle;whiteSpace=wrap;connectable=0;fillColor=none;top=0;left=0;bottom=0;right=0;overflow=hidden;" parent="93" vertex="1">
                    <mxGeometry width="52" height="40" as="geometry"/>
                </mxCell>
                <mxCell id="95" value="updated_at" style="shape=partialRectangle;whiteSpace=wrap;connectable=0;fillColor=none;top=0;left=0;bottom=0;right=0;overflow=hidden;" parent="93" vertex="1">
                    <mxGeometry x="52" width="125" height="40" as="geometry"/>
                </mxCell>
                <mxCell id="96" value="datetime" style="shape=partialRectangle;whiteSpace=wrap;connectable=0;fillColor=none;top=0;left=0;bottom=0;right=0;overflow=hidden;" parent="93" vertex="1">
                    <mxGeometry x="177" width="63" height="40" as="geometry"/>
                </mxCell>
                <mxCell id="97" value="" style="shape=partialRectangle;whiteSpace=wrap;collapsible=0;dropTarget=0;pointerEvents=0;fillColor=none;top=0;left=0;bottom=0;right=0;points=[[0,0.5],[1,0.5]];portConstraint=eastwest;" parent="84" vertex="1">
                    <mxGeometry y="150" width="240" height="40" as="geometry"/>
                </mxCell>
                <mxCell id="98" value="" style="shape=partialRectangle;whiteSpace=wrap;connectable=0;fillColor=none;top=0;left=0;bottom=0;right=0;overflow=hidden;" parent="97" vertex="1">
                    <mxGeometry width="52" height="40" as="geometry"/>
                </mxCell>
                <mxCell id="99" value="deleted_at" style="shape=partialRectangle;whiteSpace=wrap;connectable=0;fillColor=none;top=0;left=0;bottom=0;right=0;overflow=hidden;" parent="97" vertex="1">
                    <mxGeometry x="52" width="125" height="40" as="geometry"/>
                </mxCell>
                <mxCell id="100" value="datetime" style="shape=partialRectangle;whiteSpace=wrap;connectable=0;fillColor=none;top=0;left=0;bottom=0;right=0;overflow=hidden;" parent="97" vertex="1">
                    <mxGeometry x="177" width="63" height="40" as="geometry"/>
                </mxCell>
                <mxCell id="101" value="" style="shape=partialRectangle;whiteSpace=wrap;collapsible=0;dropTarget=0;pointerEvents=0;fillColor=none;top=0;left=0;bottom=0;right=0;points=[[0,0.5],[1,0.5]];portConstraint=eastwest;" parent="84" vertex="1">
                    <mxGeometry y="190" width="240" height="40" as="geometry"/>
                </mxCell>
                <mxCell id="102" value="FK" style="shape=partialRectangle;whiteSpace=wrap;connectable=0;fillColor=none;top=0;left=0;bottom=0;right=0;overflow=hidden;" parent="101" vertex="1">
                    <mxGeometry width="52" height="40" as="geometry"/>
                </mxCell>
                <mxCell id="103" value="user_id" style="shape=partialRectangle;whiteSpace=wrap;connectable=0;fillColor=none;top=0;left=0;bottom=0;right=0;overflow=hidden;" parent="101" vertex="1">
                    <mxGeometry x="52" width="125" height="40" as="geometry"/>
                </mxCell>
                <mxCell id="104" value="int" style="shape=partialRectangle;whiteSpace=wrap;connectable=0;fillColor=none;top=0;left=0;bottom=0;right=0;overflow=hidden;" parent="101" vertex="1">
                    <mxGeometry x="177" width="63" height="40" as="geometry"/>
                </mxCell>
                <mxCell id="105" value="" style="shape=partialRectangle;whiteSpace=wrap;collapsible=0;dropTarget=0;pointerEvents=0;fillColor=none;top=0;left=0;bottom=0;right=0;points=[[0,0.5],[1,0.5]];portConstraint=eastwest;" parent="84" vertex="1">
                    <mxGeometry y="230" width="240" height="40" as="geometry"/>
                </mxCell>
                <mxCell id="106" value="" style="shape=partialRectangle;whiteSpace=wrap;connectable=0;fillColor=none;top=0;left=0;bottom=0;right=0;overflow=hidden;" parent="105" vertex="1">
                    <mxGeometry width="52" height="40" as="geometry"/>
                </mxCell>
                <mxCell id="107" value="user_answer" style="shape=partialRectangle;whiteSpace=wrap;connectable=0;fillColor=none;top=0;left=0;bottom=0;right=0;overflow=hidden;" parent="105" vertex="1">
                    <mxGeometry x="52" width="125" height="40" as="geometry"/>
                </mxCell>
                <mxCell id="108" value="varchar" style="shape=partialRectangle;whiteSpace=wrap;connectable=0;fillColor=none;top=0;left=0;bottom=0;right=0;overflow=hidden;" parent="105" vertex="1">
                    <mxGeometry x="177" width="63" height="40" as="geometry"/>
                </mxCell>
                <mxCell id="109" value="" style="shape=partialRectangle;whiteSpace=wrap;collapsible=0;dropTarget=0;pointerEvents=0;fillColor=none;top=0;left=0;bottom=0;right=0;points=[[0,0.5],[1,0.5]];portConstraint=eastwest;" parent="84" vertex="1">
                    <mxGeometry y="270" width="240" height="40" as="geometry"/>
                </mxCell>
                <mxCell id="110" value="" style="shape=partialRectangle;whiteSpace=wrap;connectable=0;fillColor=none;top=0;left=0;bottom=0;right=0;overflow=hidden;" parent="109" vertex="1">
                    <mxGeometry width="52" height="40" as="geometry"/>
                </mxCell>
                <mxCell id="111" value="answer_result" style="shape=partialRectangle;whiteSpace=wrap;connectable=0;fillColor=none;top=0;left=0;bottom=0;right=0;overflow=hidden;" parent="109" vertex="1">
                    <mxGeometry x="52" width="125" height="40" as="geometry"/>
                </mxCell>
                <mxCell id="112" value="varchar" style="shape=partialRectangle;whiteSpace=wrap;connectable=0;fillColor=none;top=0;left=0;bottom=0;right=0;overflow=hidden;" parent="109" vertex="1">
                    <mxGeometry x="177" width="63" height="40" as="geometry"/>
                </mxCell>
                <mxCell id="113" value="" style="shape=partialRectangle;whiteSpace=wrap;collapsible=0;dropTarget=0;pointerEvents=0;fillColor=none;top=0;left=0;bottom=0;right=0;points=[[0,0.5],[1,0.5]];portConstraint=eastwest;" parent="84" vertex="1">
                    <mxGeometry y="310" width="240" height="40" as="geometry"/>
                </mxCell>
                <mxCell id="114" value="" style="shape=partialRectangle;whiteSpace=wrap;connectable=0;fillColor=none;top=0;left=0;bottom=0;right=0;overflow=hidden;" parent="113" vertex="1">
                    <mxGeometry width="52" height="40" as="geometry"/>
                </mxCell>
                <mxCell id="115" value="memo_log" style="shape=partialRectangle;whiteSpace=wrap;connectable=0;fillColor=none;top=0;left=0;bottom=0;right=0;overflow=hidden;" parent="113" vertex="1">
                    <mxGeometry x="52" width="125" height="40" as="geometry"/>
                </mxCell>
                <mxCell id="116" value="text" style="shape=partialRectangle;whiteSpace=wrap;connectable=0;fillColor=none;top=0;left=0;bottom=0;right=0;overflow=hidden;" parent="113" vertex="1">
                    <mxGeometry x="177" width="63" height="40" as="geometry"/>
                </mxCell>
                <mxCell id="117" value="" style="shape=partialRectangle;whiteSpace=wrap;collapsible=0;dropTarget=0;pointerEvents=0;fillColor=none;top=0;left=0;bottom=0;right=0;points=[[0,0.5],[1,0.5]];portConstraint=eastwest;" parent="84" vertex="1">
                    <mxGeometry y="350" width="240" height="40" as="geometry"/>
                </mxCell>
                <mxCell id="118" value="" style="shape=partialRectangle;whiteSpace=wrap;connectable=0;fillColor=none;top=0;left=0;bottom=0;right=0;overflow=hidden;" parent="117" vertex="1">
                    <mxGeometry width="52" height="40" as="geometry"/>
                </mxCell>
                <mxCell id="119" value="start_time" style="shape=partialRectangle;whiteSpace=wrap;connectable=0;fillColor=none;top=0;left=0;bottom=0;right=0;overflow=hidden;" parent="117" vertex="1">
                    <mxGeometry x="52" width="125" height="40" as="geometry"/>
                </mxCell>
                <mxCell id="120" value="datetime" style="shape=partialRectangle;whiteSpace=wrap;connectable=0;fillColor=none;top=0;left=0;bottom=0;right=0;overflow=hidden;" parent="117" vertex="1">
                    <mxGeometry x="177" width="63" height="40" as="geometry"/>
                </mxCell>
                <mxCell id="121" value="" style="shape=partialRectangle;whiteSpace=wrap;collapsible=0;dropTarget=0;pointerEvents=0;fillColor=none;top=0;left=0;bottom=0;right=0;points=[[0,0.5],[1,0.5]];portConstraint=eastwest;" parent="84" vertex="1">
                    <mxGeometry y="390" width="240" height="40" as="geometry"/>
                </mxCell>
                <mxCell id="122" value="" style="shape=partialRectangle;whiteSpace=wrap;connectable=0;fillColor=none;top=0;left=0;bottom=0;right=0;overflow=hidden;" parent="121" vertex="1">
                    <mxGeometry width="52" height="40" as="geometry"/>
                </mxCell>
                <mxCell id="123" value="end_time" style="shape=partialRectangle;whiteSpace=wrap;connectable=0;fillColor=none;top=0;left=0;bottom=0;right=0;overflow=hidden;" parent="121" vertex="1">
                    <mxGeometry x="52" width="125" height="40" as="geometry"/>
                </mxCell>
                <mxCell id="124" value="datetime" style="shape=partialRectangle;whiteSpace=wrap;connectable=0;fillColor=none;top=0;left=0;bottom=0;right=0;overflow=hidden;" parent="121" vertex="1">
                    <mxGeometry x="177" width="63" height="40" as="geometry"/>
                </mxCell>
                <mxCell id="125" value="" style="shape=partialRectangle;whiteSpace=wrap;collapsible=0;dropTarget=0;pointerEvents=0;fillColor=none;top=0;left=0;bottom=0;right=0;points=[[0,0.5],[1,0.5]];portConstraint=eastwest;" parent="84" vertex="1">
                    <mxGeometry y="430" width="240" height="40" as="geometry"/>
                </mxCell>
                <mxCell id="126" value="" style="shape=partialRectangle;whiteSpace=wrap;connectable=0;fillColor=none;top=0;left=0;bottom=0;right=0;overflow=hidden;" parent="125" vertex="1">
                    <mxGeometry width="52" height="40" as="geometry"/>
                </mxCell>
                <mxCell id="127" value="other_focus_second" style="shape=partialRectangle;whiteSpace=wrap;connectable=0;fillColor=none;top=0;left=0;bottom=0;right=0;overflow=hidden;" parent="125" vertex="1">
                    <mxGeometry x="52" width="125" height="40" as="geometry"/>
                </mxCell>
                <mxCell id="128" value="int" style="shape=partialRectangle;whiteSpace=wrap;connectable=0;fillColor=none;top=0;left=0;bottom=0;right=0;overflow=hidden;" parent="125" vertex="1">
                    <mxGeometry x="177" width="63" height="40" as="geometry"/>
                </mxCell>
                <mxCell id="129" value="" style="shape=partialRectangle;whiteSpace=wrap;collapsible=0;dropTarget=0;pointerEvents=0;fillColor=none;top=0;left=0;bottom=0;right=0;points=[[0,0.5],[1,0.5]];portConstraint=eastwest;" parent="84" vertex="1">
                    <mxGeometry y="470" width="240" height="40" as="geometry"/>
                </mxCell>
                <mxCell id="130" value="FK" style="shape=partialRectangle;whiteSpace=wrap;connectable=0;fillColor=none;top=0;left=0;bottom=0;right=0;overflow=hidden;" parent="129" vertex="1">
                    <mxGeometry width="52" height="40" as="geometry"/>
                </mxCell>
                <mxCell id="131" value="question_id" style="shape=partialRectangle;whiteSpace=wrap;connectable=0;fillColor=none;top=0;left=0;bottom=0;right=0;overflow=hidden;" parent="129" vertex="1">
                    <mxGeometry x="52" width="125" height="40" as="geometry"/>
                </mxCell>
                <mxCell id="132" value="int" style="shape=partialRectangle;whiteSpace=wrap;connectable=0;fillColor=none;top=0;left=0;bottom=0;right=0;overflow=hidden;" parent="129" vertex="1">
                    <mxGeometry x="177" width="63" height="40" as="geometry"/>
                </mxCell>
                <mxCell id="133" value="" style="shape=partialRectangle;whiteSpace=wrap;collapsible=0;dropTarget=0;pointerEvents=0;fillColor=none;top=0;left=0;bottom=0;right=0;points=[[0,0.5],[1,0.5]];portConstraint=eastwest;" parent="84" vertex="1">
                    <mxGeometry y="510" width="240" height="40" as="geometry"/>
                </mxCell>
                <mxCell id="134" value="" style="shape=partialRectangle;whiteSpace=wrap;connectable=0;fillColor=none;top=0;left=0;bottom=0;right=0;overflow=hidden;" parent="133" vertex="1">
                    <mxGeometry width="52" height="40" as="geometry"/>
                </mxCell>
                <mxCell id="135" value="concentration_data" style="shape=partialRectangle;whiteSpace=wrap;connectable=0;fillColor=none;top=0;left=0;bottom=0;right=0;overflow=hidden;" parent="133" vertex="1">
                    <mxGeometry x="52" width="125" height="40" as="geometry"/>
                </mxCell>
                <mxCell id="136" value="varchar" style="shape=partialRectangle;whiteSpace=wrap;connectable=0;fillColor=none;top=0;left=0;bottom=0;right=0;overflow=hidden;" parent="133" vertex="1">
                    <mxGeometry x="177" width="63" height="40" as="geometry"/>
                </mxCell>
                <mxCell id="137" value="questions" style="shape=table;startSize=30;container=1;collapsible=0;childLayout=tableLayout;fontStyle=1;align=center;fillColor=none;" parent="1" vertex="1">
                    <mxGeometry x="95" y="-400" width="240" height="710" as="geometry"/>
                </mxCell>
                <mxCell id="138" value="" style="shape=partialRectangle;whiteSpace=wrap;collapsible=0;dropTarget=0;pointerEvents=0;fillColor=none;top=0;left=0;bottom=0;right=0;points=[[0,0.5],[1,0.5]];portConstraint=eastwest;" parent="137" vertex="1">
                    <mxGeometry y="30" width="240" height="40" as="geometry"/>
                </mxCell>
                <mxCell id="139" value="PK" style="shape=partialRectangle;whiteSpace=wrap;connectable=0;fillColor=none;top=0;left=0;bottom=0;right=0;overflow=hidden;" parent="138" vertex="1">
                    <mxGeometry width="52" height="40" as="geometry"/>
                </mxCell>
                <mxCell id="140" value="id" style="shape=partialRectangle;whiteSpace=wrap;connectable=0;fillColor=none;top=0;left=0;bottom=0;right=0;overflow=hidden;" parent="138" vertex="1">
                    <mxGeometry x="52" width="118" height="40" as="geometry"/>
                </mxCell>
                <mxCell id="141" value="int" style="shape=partialRectangle;whiteSpace=wrap;connectable=0;fillColor=none;top=0;left=0;bottom=0;right=0;overflow=hidden;" parent="138" vertex="1">
                    <mxGeometry x="170" width="70" height="40" as="geometry"/>
                </mxCell>
                <mxCell id="142" value="" style="shape=partialRectangle;whiteSpace=wrap;collapsible=0;dropTarget=0;pointerEvents=0;fillColor=none;top=0;left=0;bottom=0;right=0;points=[[0,0.5],[1,0.5]];portConstraint=eastwest;" parent="137" vertex="1">
                    <mxGeometry y="70" width="240" height="40" as="geometry"/>
                </mxCell>
                <mxCell id="143" value="" style="shape=partialRectangle;whiteSpace=wrap;connectable=0;fillColor=none;top=0;left=0;bottom=0;right=0;overflow=hidden;" parent="142" vertex="1">
                    <mxGeometry width="52" height="40" as="geometry"/>
                </mxCell>
                <mxCell id="144" value="created_at" style="shape=partialRectangle;whiteSpace=wrap;connectable=0;fillColor=none;top=0;left=0;bottom=0;right=0;overflow=hidden;" parent="142" vertex="1">
                    <mxGeometry x="52" width="118" height="40" as="geometry"/>
                </mxCell>
                <mxCell id="145" value="datetime" style="shape=partialRectangle;whiteSpace=wrap;connectable=0;fillColor=none;top=0;left=0;bottom=0;right=0;overflow=hidden;" parent="142" vertex="1">
                    <mxGeometry x="170" width="70" height="40" as="geometry"/>
                </mxCell>
                <mxCell id="146" value="" style="shape=partialRectangle;whiteSpace=wrap;collapsible=0;dropTarget=0;pointerEvents=0;fillColor=none;top=0;left=0;bottom=0;right=0;points=[[0,0.5],[1,0.5]];portConstraint=eastwest;" parent="137" vertex="1">
                    <mxGeometry y="110" width="240" height="40" as="geometry"/>
                </mxCell>
                <mxCell id="147" value="" style="shape=partialRectangle;whiteSpace=wrap;connectable=0;fillColor=none;top=0;left=0;bottom=0;right=0;overflow=hidden;" parent="146" vertex="1">
                    <mxGeometry width="52" height="40" as="geometry"/>
                </mxCell>
                <mxCell id="148" value="updated_at" style="shape=partialRectangle;whiteSpace=wrap;connectable=0;fillColor=none;top=0;left=0;bottom=0;right=0;overflow=hidden;" parent="146" vertex="1">
                    <mxGeometry x="52" width="118" height="40" as="geometry"/>
                </mxCell>
                <mxCell id="149" value="datetime" style="shape=partialRectangle;whiteSpace=wrap;connectable=0;fillColor=none;top=0;left=0;bottom=0;right=0;overflow=hidden;" parent="146" vertex="1">
                    <mxGeometry x="170" width="70" height="40" as="geometry"/>
                </mxCell>
                <mxCell id="150" value="" style="shape=partialRectangle;whiteSpace=wrap;collapsible=0;dropTarget=0;pointerEvents=0;fillColor=none;top=0;left=0;bottom=0;right=0;points=[[0,0.5],[1,0.5]];portConstraint=eastwest;" parent="137" vertex="1">
                    <mxGeometry y="150" width="240" height="40" as="geometry"/>
                </mxCell>
                <mxCell id="151" value="" style="shape=partialRectangle;whiteSpace=wrap;connectable=0;fillColor=none;top=0;left=0;bottom=0;right=0;overflow=hidden;" parent="150" vertex="1">
                    <mxGeometry width="52" height="40" as="geometry"/>
                </mxCell>
                <mxCell id="152" value="deleted_at" style="shape=partialRectangle;whiteSpace=wrap;connectable=0;fillColor=none;top=0;left=0;bottom=0;right=0;overflow=hidden;" parent="150" vertex="1">
                    <mxGeometry x="52" width="118" height="40" as="geometry"/>
                </mxCell>
                <mxCell id="153" value="datetime" style="shape=partialRectangle;whiteSpace=wrap;connectable=0;fillColor=none;top=0;left=0;bottom=0;right=0;overflow=hidden;" parent="150" vertex="1">
                    <mxGeometry x="170" width="70" height="40" as="geometry"/>
                </mxCell>
                <mxCell id="154" value="" style="shape=partialRectangle;whiteSpace=wrap;collapsible=0;dropTarget=0;pointerEvents=0;fillColor=none;top=0;left=0;bottom=0;right=0;points=[[0,0.5],[1,0.5]];portConstraint=eastwest;" parent="137" vertex="1">
                    <mxGeometry y="190" width="240" height="40" as="geometry"/>
                </mxCell>
                <mxCell id="155" value="" style="shape=partialRectangle;whiteSpace=wrap;connectable=0;fillColor=none;top=0;left=0;bottom=0;right=0;overflow=hidden;" parent="154" vertex="1">
                    <mxGeometry width="52" height="40" as="geometry"/>
                </mxCell>
                <mxCell id="156" value="question" style="shape=partialRectangle;whiteSpace=wrap;connectable=0;fillColor=none;top=0;left=0;bottom=0;right=0;overflow=hidden;" parent="154" vertex="1">
                    <mxGeometry x="52" width="118" height="40" as="geometry"/>
                </mxCell>
                <mxCell id="157" value="text" style="shape=partialRectangle;whiteSpace=wrap;connectable=0;fillColor=none;top=0;left=0;bottom=0;right=0;overflow=hidden;" parent="154" vertex="1">
                    <mxGeometry x="170" width="70" height="40" as="geometry"/>
                </mxCell>
                <mxCell id="158" value="" style="shape=partialRectangle;whiteSpace=wrap;collapsible=0;dropTarget=0;pointerEvents=0;fillColor=none;top=0;left=0;bottom=0;right=0;points=[[0,0.5],[1,0.5]];portConstraint=eastwest;" parent="137" vertex="1">
                    <mxGeometry y="230" width="240" height="40" as="geometry"/>
                </mxCell>
                <mxCell id="159" value="" style="shape=partialRectangle;whiteSpace=wrap;connectable=0;fillColor=none;top=0;left=0;bottom=0;right=0;overflow=hidden;" parent="158" vertex="1">
                    <mxGeometry width="52" height="40" as="geometry"/>
                </mxCell>
                <mxCell id="160" value="qimg_path" style="shape=partialRectangle;whiteSpace=wrap;connectable=0;fillColor=none;top=0;left=0;bottom=0;right=0;overflow=hidden;" parent="158" vertex="1">
                    <mxGeometry x="52" width="118" height="40" as="geometry"/>
                </mxCell>
                <mxCell id="161" value="varchar" style="shape=partialRectangle;whiteSpace=wrap;connectable=0;fillColor=none;top=0;left=0;bottom=0;right=0;overflow=hidden;" parent="158" vertex="1">
                    <mxGeometry x="170" width="70" height="40" as="geometry"/>
                </mxCell>
                <mxCell id="162" value="" style="shape=partialRectangle;whiteSpace=wrap;collapsible=0;dropTarget=0;pointerEvents=0;fillColor=none;top=0;left=0;bottom=0;right=0;points=[[0,0.5],[1,0.5]];portConstraint=eastwest;" parent="137" vertex="1">
                    <mxGeometry y="270" width="240" height="40" as="geometry"/>
                </mxCell>
                <mxCell id="163" value="" style="shape=partialRectangle;whiteSpace=wrap;connectable=0;fillColor=none;top=0;left=0;bottom=0;right=0;overflow=hidden;" parent="162" vertex="1">
                    <mxGeometry width="52" height="40" as="geometry"/>
                </mxCell>
                <mxCell id="164" value="mistake1" style="shape=partialRectangle;whiteSpace=wrap;connectable=0;fillColor=none;top=0;left=0;bottom=0;right=0;overflow=hidden;" parent="162" vertex="1">
                    <mxGeometry x="52" width="118" height="40" as="geometry"/>
                </mxCell>
                <mxCell id="165" value="char" style="shape=partialRectangle;whiteSpace=wrap;connectable=0;fillColor=none;top=0;left=0;bottom=0;right=0;overflow=hidden;" parent="162" vertex="1">
                    <mxGeometry x="170" width="70" height="40" as="geometry"/>
                </mxCell>
                <mxCell id="166" value="" style="shape=partialRectangle;whiteSpace=wrap;collapsible=0;dropTarget=0;pointerEvents=0;fillColor=none;top=0;left=0;bottom=0;right=0;points=[[0,0.5],[1,0.5]];portConstraint=eastwest;" parent="137" vertex="1">
                    <mxGeometry y="310" width="240" height="40" as="geometry"/>
                </mxCell>
                <mxCell id="167" value="" style="shape=partialRectangle;whiteSpace=wrap;connectable=0;fillColor=none;top=0;left=0;bottom=0;right=0;overflow=hidden;" parent="166" vertex="1">
                    <mxGeometry width="52" height="40" as="geometry"/>
                </mxCell>
                <mxCell id="168" value="mistake2" style="shape=partialRectangle;whiteSpace=wrap;connectable=0;fillColor=none;top=0;left=0;bottom=0;right=0;overflow=hidden;" parent="166" vertex="1">
                    <mxGeometry x="52" width="118" height="40" as="geometry"/>
                </mxCell>
                <mxCell id="169" value="char" style="shape=partialRectangle;whiteSpace=wrap;connectable=0;fillColor=none;top=0;left=0;bottom=0;right=0;overflow=hidden;" parent="166" vertex="1">
                    <mxGeometry x="170" width="70" height="40" as="geometry"/>
                </mxCell>
                <mxCell id="170" value="" style="shape=partialRectangle;whiteSpace=wrap;collapsible=0;dropTarget=0;pointerEvents=0;fillColor=none;top=0;left=0;bottom=0;right=0;points=[[0,0.5],[1,0.5]];portConstraint=eastwest;" parent="137" vertex="1">
                    <mxGeometry y="350" width="240" height="40" as="geometry"/>
                </mxCell>
                <mxCell id="171" value="" style="shape=partialRectangle;whiteSpace=wrap;connectable=0;fillColor=none;top=0;left=0;bottom=0;right=0;overflow=hidden;" parent="170" vertex="1">
                    <mxGeometry width="52" height="40" as="geometry"/>
                </mxCell>
                <mxCell id="172" value="mistake3" style="shape=partialRectangle;whiteSpace=wrap;connectable=0;fillColor=none;top=0;left=0;bottom=0;right=0;overflow=hidden;" parent="170" vertex="1">
                    <mxGeometry x="52" width="118" height="40" as="geometry"/>
                </mxCell>
                <mxCell id="173" value="char" style="shape=partialRectangle;whiteSpace=wrap;connectable=0;fillColor=none;top=0;left=0;bottom=0;right=0;overflow=hidden;" parent="170" vertex="1">
                    <mxGeometry x="170" width="70" height="40" as="geometry"/>
                </mxCell>
                <mxCell id="174" value="" style="shape=partialRectangle;whiteSpace=wrap;collapsible=0;dropTarget=0;pointerEvents=0;fillColor=none;top=0;left=0;bottom=0;right=0;points=[[0,0.5],[1,0.5]];portConstraint=eastwest;" parent="137" vertex="1">
                    <mxGeometry y="390" width="240" height="40" as="geometry"/>
                </mxCell>
                <mxCell id="175" value="" style="shape=partialRectangle;whiteSpace=wrap;connectable=0;fillColor=none;top=0;left=0;bottom=0;right=0;overflow=hidden;" parent="174" vertex="1">
                    <mxGeometry width="52" height="40" as="geometry"/>
                </mxCell>
                <mxCell id="176" value="ans" style="shape=partialRectangle;whiteSpace=wrap;connectable=0;fillColor=none;top=0;left=0;bottom=0;right=0;overflow=hidden;" parent="174" vertex="1">
                    <mxGeometry x="52" width="118" height="40" as="geometry"/>
                </mxCell>
                <mxCell id="177" value="char" style="shape=partialRectangle;whiteSpace=wrap;connectable=0;fillColor=none;top=0;left=0;bottom=0;right=0;overflow=hidden;" parent="174" vertex="1">
                    <mxGeometry x="170" width="70" height="40" as="geometry"/>
                </mxCell>
                <mxCell id="178" value="" style="shape=partialRectangle;whiteSpace=wrap;collapsible=0;dropTarget=0;pointerEvents=0;fillColor=none;top=0;left=0;bottom=0;right=0;points=[[0,0.5],[1,0.5]];portConstraint=eastwest;" parent="137" vertex="1">
                    <mxGeometry y="430" width="240" height="40" as="geometry"/>
                </mxCell>
                <mxCell id="179" value="" style="shape=partialRectangle;whiteSpace=wrap;connectable=0;fillColor=none;top=0;left=0;bottom=0;right=0;overflow=hidden;" parent="178" vertex="1">
                    <mxGeometry width="52" height="40" as="geometry"/>
                </mxCell>
                <mxCell id="180" value="mimg_path1" style="shape=partialRectangle;whiteSpace=wrap;connectable=0;fillColor=none;top=0;left=0;bottom=0;right=0;overflow=hidden;" parent="178" vertex="1">
                    <mxGeometry x="52" width="118" height="40" as="geometry"/>
                </mxCell>
                <mxCell id="181" value="char" style="shape=partialRectangle;whiteSpace=wrap;connectable=0;fillColor=none;top=0;left=0;bottom=0;right=0;overflow=hidden;" parent="178" vertex="1">
                    <mxGeometry x="170" width="70" height="40" as="geometry"/>
                </mxCell>
                <mxCell id="182" value="" style="shape=partialRectangle;whiteSpace=wrap;collapsible=0;dropTarget=0;pointerEvents=0;fillColor=none;top=0;left=0;bottom=0;right=0;points=[[0,0.5],[1,0.5]];portConstraint=eastwest;" parent="137" vertex="1">
                    <mxGeometry y="470" width="240" height="40" as="geometry"/>
                </mxCell>
                <mxCell id="183" value="" style="shape=partialRectangle;whiteSpace=wrap;connectable=0;fillColor=none;top=0;left=0;bottom=0;right=0;overflow=hidden;" parent="182" vertex="1">
                    <mxGeometry width="52" height="40" as="geometry"/>
                </mxCell>
                <mxCell id="184" value="mimg_path2" style="shape=partialRectangle;whiteSpace=wrap;connectable=0;fillColor=none;top=0;left=0;bottom=0;right=0;overflow=hidden;" parent="182" vertex="1">
                    <mxGeometry x="52" width="118" height="40" as="geometry"/>
                </mxCell>
                <mxCell id="185" value="char" style="shape=partialRectangle;whiteSpace=wrap;connectable=0;fillColor=none;top=0;left=0;bottom=0;right=0;overflow=hidden;" parent="182" vertex="1">
                    <mxGeometry x="170" width="70" height="40" as="geometry"/>
                </mxCell>
                <mxCell id="186" value="" style="shape=partialRectangle;whiteSpace=wrap;collapsible=0;dropTarget=0;pointerEvents=0;fillColor=none;top=0;left=0;bottom=0;right=0;points=[[0,0.5],[1,0.5]];portConstraint=eastwest;" parent="137" vertex="1">
                    <mxGeometry y="510" width="240" height="40" as="geometry"/>
                </mxCell>
                <mxCell id="187" value="" style="shape=partialRectangle;whiteSpace=wrap;connectable=0;fillColor=none;top=0;left=0;bottom=0;right=0;overflow=hidden;" parent="186" vertex="1">
                    <mxGeometry width="52" height="40" as="geometry"/>
                </mxCell>
                <mxCell id="188" value="mimg_path3" style="shape=partialRectangle;whiteSpace=wrap;connectable=0;fillColor=none;top=0;left=0;bottom=0;right=0;overflow=hidden;" parent="186" vertex="1">
                    <mxGeometry x="52" width="118" height="40" as="geometry"/>
                </mxCell>
                <mxCell id="189" value="char" style="shape=partialRectangle;whiteSpace=wrap;connectable=0;fillColor=none;top=0;left=0;bottom=0;right=0;overflow=hidden;" parent="186" vertex="1">
                    <mxGeometry x="170" width="70" height="40" as="geometry"/>
                </mxCell>
                <mxCell id="190" value="" style="shape=partialRectangle;whiteSpace=wrap;collapsible=0;dropTarget=0;pointerEvents=0;fillColor=none;top=0;left=0;bottom=0;right=0;points=[[0,0.5],[1,0.5]];portConstraint=eastwest;" parent="137" vertex="1">
                    <mxGeometry y="550" width="240" height="40" as="geometry"/>
                </mxCell>
                <mxCell id="191" value="" style="shape=partialRectangle;whiteSpace=wrap;connectable=0;fillColor=none;top=0;left=0;bottom=0;right=0;overflow=hidden;" parent="190" vertex="1">
                    <mxGeometry width="52" height="40" as="geometry"/>
                </mxCell>
                <mxCell id="192" value="aimg_path" style="shape=partialRectangle;whiteSpace=wrap;connectable=0;fillColor=none;top=0;left=0;bottom=0;right=0;overflow=hidden;" parent="190" vertex="1">
                    <mxGeometry x="52" width="118" height="40" as="geometry"/>
                </mxCell>
                <mxCell id="193" value="char" style="shape=partialRectangle;whiteSpace=wrap;connectable=0;fillColor=none;top=0;left=0;bottom=0;right=0;overflow=hidden;" parent="190" vertex="1">
                    <mxGeometry x="170" width="70" height="40" as="geometry"/>
                </mxCell>
                <mxCell id="194" value="" style="shape=partialRectangle;whiteSpace=wrap;collapsible=0;dropTarget=0;pointerEvents=0;fillColor=none;top=0;left=0;bottom=0;right=0;points=[[0,0.5],[1,0.5]];portConstraint=eastwest;" parent="137" vertex="1">
                    <mxGeometry y="590" width="240" height="40" as="geometry"/>
                </mxCell>
                <mxCell id="195" value="" style="shape=partialRectangle;whiteSpace=wrap;connectable=0;fillColor=none;top=0;left=0;bottom=0;right=0;overflow=hidden;" parent="194" vertex="1">
                    <mxGeometry width="52" height="40" as="geometry"/>
                </mxCell>
                <mxCell id="196" value="season" style="shape=partialRectangle;whiteSpace=wrap;connectable=0;fillColor=none;top=0;left=0;bottom=0;right=0;overflow=hidden;" parent="194" vertex="1">
                    <mxGeometry x="52" width="118" height="40" as="geometry"/>
                </mxCell>
                <mxCell id="197" value="char" style="shape=partialRectangle;whiteSpace=wrap;connectable=0;fillColor=none;top=0;left=0;bottom=0;right=0;overflow=hidden;" parent="194" vertex="1">
                    <mxGeometry x="170" width="70" height="40" as="geometry"/>
                </mxCell>
                <mxCell id="198" value="" style="shape=partialRectangle;whiteSpace=wrap;collapsible=0;dropTarget=0;pointerEvents=0;fillColor=none;top=0;left=0;bottom=0;right=0;points=[[0,0.5],[1,0.5]];portConstraint=eastwest;" parent="137" vertex="1">
                    <mxGeometry y="630" width="240" height="40" as="geometry"/>
                </mxCell>
                <mxCell id="199" value="" style="shape=partialRectangle;whiteSpace=wrap;connectable=0;fillColor=none;top=0;left=0;bottom=0;right=0;overflow=hidden;" parent="198" vertex="1">
                    <mxGeometry width="52" height="40" as="geometry"/>
                </mxCell>
                <mxCell id="200" value="question_num" style="shape=partialRectangle;whiteSpace=wrap;connectable=0;fillColor=none;top=0;left=0;bottom=0;right=0;overflow=hidden;" parent="198" vertex="1">
                    <mxGeometry x="52" width="118" height="40" as="geometry"/>
                </mxCell>
                <mxCell id="201" value="char" style="shape=partialRectangle;whiteSpace=wrap;connectable=0;fillColor=none;top=0;left=0;bottom=0;right=0;overflow=hidden;" parent="198" vertex="1">
                    <mxGeometry x="170" width="70" height="40" as="geometry"/>
                </mxCell>
                <mxCell id="202" value="" style="shape=partialRectangle;whiteSpace=wrap;collapsible=0;dropTarget=0;pointerEvents=0;fillColor=none;top=0;left=0;bottom=0;right=0;points=[[0,0.5],[1,0.5]];portConstraint=eastwest;" parent="137" vertex="1">
                    <mxGeometry y="670" width="240" height="40" as="geometry"/>
                </mxCell>
                <mxCell id="203" value="" style="shape=partialRectangle;whiteSpace=wrap;connectable=0;fillColor=none;top=0;left=0;bottom=0;right=0;overflow=hidden;" parent="202" vertex="1">
                    <mxGeometry width="52" height="40" as="geometry"/>
                </mxCell>
                <mxCell id="204" value="genre" style="shape=partialRectangle;whiteSpace=wrap;connectable=0;fillColor=none;top=0;left=0;bottom=0;right=0;overflow=hidden;" parent="202" vertex="1">
                    <mxGeometry x="52" width="118" height="40" as="geometry"/>
                </mxCell>
                <mxCell id="205" value="char" style="shape=partialRectangle;whiteSpace=wrap;connectable=0;fillColor=none;top=0;left=0;bottom=0;right=0;overflow=hidden;" parent="202" vertex="1">
                    <mxGeometry x="170" width="70" height="40" as="geometry"/>
                </mxCell>
                <mxCell id="206" value="answer_result_sections" style="shape=table;startSize=30;container=1;collapsible=0;childLayout=tableLayout;fontStyle=1;align=center;fillColor=none;" parent="1" vertex="1">
                    <mxGeometry x="750" y="-400" width="330" height="510" as="geometry"/>
                </mxCell>
                <mxCell id="207" value="" style="shape=partialRectangle;whiteSpace=wrap;collapsible=0;dropTarget=0;pointerEvents=0;fillColor=none;top=0;left=0;bottom=0;right=0;points=[[0,0.5],[1,0.5]];portConstraint=eastwest;" parent="206" vertex="1">
                    <mxGeometry y="30" width="330" height="41" as="geometry"/>
                </mxCell>
                <mxCell id="208" value="PK" style="shape=partialRectangle;whiteSpace=wrap;connectable=0;fillColor=none;top=0;left=0;bottom=0;right=0;overflow=hidden;" parent="207" vertex="1">
                    <mxGeometry width="72" height="41" as="geometry"/>
                </mxCell>
                <mxCell id="209" value="id" style="shape=partialRectangle;whiteSpace=wrap;connectable=0;fillColor=none;top=0;left=0;bottom=0;right=0;overflow=hidden;" parent="207" vertex="1">
                    <mxGeometry x="72" width="168" height="41" as="geometry"/>
                </mxCell>
                <mxCell id="210" value="int" style="shape=partialRectangle;whiteSpace=wrap;connectable=0;fillColor=none;top=0;left=0;bottom=0;right=0;overflow=hidden;" parent="207" vertex="1">
                    <mxGeometry x="240" width="90" height="41" as="geometry"/>
                </mxCell>
                <mxCell id="211" value="" style="shape=partialRectangle;whiteSpace=wrap;collapsible=0;dropTarget=0;pointerEvents=0;fillColor=none;top=0;left=0;bottom=0;right=0;points=[[0,0.5],[1,0.5]];portConstraint=eastwest;" parent="206" vertex="1">
                    <mxGeometry y="71" width="330" height="41" as="geometry"/>
                </mxCell>
                <mxCell id="212" value="" style="shape=partialRectangle;whiteSpace=wrap;connectable=0;fillColor=none;top=0;left=0;bottom=0;right=0;overflow=hidden;" parent="211" vertex="1">
                    <mxGeometry width="72" height="41" as="geometry"/>
                </mxCell>
                <mxCell id="213" value="created_at" style="shape=partialRectangle;whiteSpace=wrap;connectable=0;fillColor=none;top=0;left=0;bottom=0;right=0;overflow=hidden;" parent="211" vertex="1">
                    <mxGeometry x="72" width="168" height="41" as="geometry"/>
                </mxCell>
                <mxCell id="214" value="datetime" style="shape=partialRectangle;whiteSpace=wrap;connectable=0;fillColor=none;top=0;left=0;bottom=0;right=0;overflow=hidden;" parent="211" vertex="1">
                    <mxGeometry x="240" width="90" height="41" as="geometry"/>
                </mxCell>
                <mxCell id="215" value="" style="shape=partialRectangle;whiteSpace=wrap;collapsible=0;dropTarget=0;pointerEvents=0;fillColor=none;top=0;left=0;bottom=0;right=0;points=[[0,0.5],[1,0.5]];portConstraint=eastwest;" parent="206" vertex="1">
                    <mxGeometry y="112" width="330" height="40" as="geometry"/>
                </mxCell>
                <mxCell id="216" value="" style="shape=partialRectangle;whiteSpace=wrap;connectable=0;fillColor=none;top=0;left=0;bottom=0;right=0;overflow=hidden;" parent="215" vertex="1">
                    <mxGeometry width="72" height="40" as="geometry"/>
                </mxCell>
                <mxCell id="217" value="updated_at" style="shape=partialRectangle;whiteSpace=wrap;connectable=0;fillColor=none;top=0;left=0;bottom=0;right=0;overflow=hidden;" parent="215" vertex="1">
                    <mxGeometry x="72" width="168" height="40" as="geometry"/>
                </mxCell>
                <mxCell id="218" value="datetime" style="shape=partialRectangle;whiteSpace=wrap;connectable=0;fillColor=none;top=0;left=0;bottom=0;right=0;overflow=hidden;" parent="215" vertex="1">
                    <mxGeometry x="240" width="90" height="40" as="geometry"/>
                </mxCell>
                <mxCell id="219" value="" style="shape=partialRectangle;whiteSpace=wrap;collapsible=0;dropTarget=0;pointerEvents=0;fillColor=none;top=0;left=0;bottom=0;right=0;points=[[0,0.5],[1,0.5]];portConstraint=eastwest;" parent="206" vertex="1">
                    <mxGeometry y="152" width="330" height="41" as="geometry"/>
                </mxCell>
                <mxCell id="220" value="" style="shape=partialRectangle;whiteSpace=wrap;connectable=0;fillColor=none;top=0;left=0;bottom=0;right=0;overflow=hidden;" parent="219" vertex="1">
                    <mxGeometry width="72" height="41" as="geometry"/>
                </mxCell>
                <mxCell id="221" value="deleted_at" style="shape=partialRectangle;whiteSpace=wrap;connectable=0;fillColor=none;top=0;left=0;bottom=0;right=0;overflow=hidden;" parent="219" vertex="1">
                    <mxGeometry x="72" width="168" height="41" as="geometry"/>
                </mxCell>
                <mxCell id="222" value="datetime" style="shape=partialRectangle;whiteSpace=wrap;connectable=0;fillColor=none;top=0;left=0;bottom=0;right=0;overflow=hidden;" parent="219" vertex="1">
                    <mxGeometry x="240" width="90" height="41" as="geometry"/>
                </mxCell>
                <mxCell id="223" value="" style="shape=partialRectangle;whiteSpace=wrap;collapsible=0;dropTarget=0;pointerEvents=0;fillColor=none;top=0;left=0;bottom=0;right=0;points=[[0,0.5],[1,0.5]];portConstraint=eastwest;" parent="206" vertex="1">
                    <mxGeometry y="193" width="330" height="41" as="geometry"/>
                </mxCell>
                <mxCell id="224" value="FK" style="shape=partialRectangle;whiteSpace=wrap;connectable=0;fillColor=none;top=0;left=0;bottom=0;right=0;overflow=hidden;" parent="223" vertex="1">
                    <mxGeometry width="72" height="41" as="geometry"/>
                </mxCell>
                <mxCell id="225" value="user_id" style="shape=partialRectangle;whiteSpace=wrap;connectable=0;fillColor=none;top=0;left=0;bottom=0;right=0;overflow=hidden;" parent="223" vertex="1">
                    <mxGeometry x="72" width="168" height="41" as="geometry"/>
                </mxCell>
                <mxCell id="226" value="int" style="shape=partialRectangle;whiteSpace=wrap;connectable=0;fillColor=none;top=0;left=0;bottom=0;right=0;overflow=hidden;" parent="223" vertex="1">
                    <mxGeometry x="240" width="90" height="41" as="geometry"/>
                </mxCell>
                <mxCell id="227" value="" style="shape=partialRectangle;whiteSpace=wrap;collapsible=0;dropTarget=0;pointerEvents=0;fillColor=none;top=0;left=0;bottom=0;right=0;points=[[0,0.5],[1,0.5]];portConstraint=eastwest;" parent="206" vertex="1">
                    <mxGeometry y="234" width="330" height="41" as="geometry"/>
                </mxCell>
                <mxCell id="228" value="" style="shape=partialRectangle;whiteSpace=wrap;connectable=0;fillColor=none;top=0;left=0;bottom=0;right=0;overflow=hidden;" parent="227" vertex="1">
                    <mxGeometry width="72" height="41" as="geometry"/>
                </mxCell>
                <mxCell id="229" value="user_answer" style="shape=partialRectangle;whiteSpace=wrap;connectable=0;fillColor=none;top=0;left=0;bottom=0;right=0;overflow=hidden;" parent="227" vertex="1">
                    <mxGeometry x="72" width="168" height="41" as="geometry"/>
                </mxCell>
                <mxCell id="230" value="varchar" style="shape=partialRectangle;whiteSpace=wrap;connectable=0;fillColor=none;top=0;left=0;bottom=0;right=0;overflow=hidden;" parent="227" vertex="1">
                    <mxGeometry x="240" width="90" height="41" as="geometry"/>
                </mxCell>
                <mxCell id="231" value="" style="shape=partialRectangle;whiteSpace=wrap;collapsible=0;dropTarget=0;pointerEvents=0;fillColor=none;top=0;left=0;bottom=0;right=0;points=[[0,0.5],[1,0.5]];portConstraint=eastwest;" parent="206" vertex="1">
                    <mxGeometry y="275" width="330" height="40" as="geometry"/>
                </mxCell>
                <mxCell id="232" value="" style="shape=partialRectangle;whiteSpace=wrap;connectable=0;fillColor=none;top=0;left=0;bottom=0;right=0;overflow=hidden;" parent="231" vertex="1">
                    <mxGeometry width="72" height="40" as="geometry"/>
                </mxCell>
                <mxCell id="233" value="answer_result_ids" style="shape=partialRectangle;whiteSpace=wrap;connectable=0;fillColor=none;top=0;left=0;bottom=0;right=0;overflow=hidden;" parent="231" vertex="1">
                    <mxGeometry x="72" width="168" height="40" as="geometry"/>
                </mxCell>
                <mxCell id="234" value="text" style="shape=partialRectangle;whiteSpace=wrap;connectable=0;fillColor=none;top=0;left=0;bottom=0;right=0;overflow=hidden;" parent="231" vertex="1">
                    <mxGeometry x="240" width="90" height="40" as="geometry"/>
                </mxCell>
                <mxCell id="235" value="" style="shape=partialRectangle;whiteSpace=wrap;collapsible=0;dropTarget=0;pointerEvents=0;fillColor=none;top=0;left=0;bottom=0;right=0;points=[[0,0.5],[1,0.5]];portConstraint=eastwest;" parent="206" vertex="1">
                    <mxGeometry y="315" width="330" height="41" as="geometry"/>
                </mxCell>
                <mxCell id="236" value="" style="shape=partialRectangle;whiteSpace=wrap;connectable=0;fillColor=none;top=0;left=0;bottom=0;right=0;overflow=hidden;" parent="235" vertex="1">
                    <mxGeometry width="72" height="41" as="geometry"/>
                </mxCell>
                <mxCell id="237" value="correct_answer_number" style="shape=partialRectangle;whiteSpace=wrap;connectable=0;fillColor=none;top=0;left=0;bottom=0;right=0;overflow=hidden;" parent="235" vertex="1">
                    <mxGeometry x="72" width="168" height="41" as="geometry"/>
                </mxCell>
                <mxCell id="238" value="int" style="shape=partialRectangle;whiteSpace=wrap;connectable=0;fillColor=none;top=0;left=0;bottom=0;right=0;overflow=hidden;" parent="235" vertex="1">
                    <mxGeometry x="240" width="90" height="41" as="geometry"/>
                </mxCell>
                <mxCell id="239" value="" style="shape=partialRectangle;whiteSpace=wrap;collapsible=0;dropTarget=0;pointerEvents=0;fillColor=none;top=0;left=0;bottom=0;right=0;points=[[0,0.5],[1,0.5]];portConstraint=eastwest;" parent="206" vertex="1">
                    <mxGeometry y="356" width="330" height="41" as="geometry"/>
                </mxCell>
                <mxCell id="240" value="" style="shape=partialRectangle;whiteSpace=wrap;connectable=0;fillColor=none;top=0;left=0;bottom=0;right=0;overflow=hidden;" parent="239" vertex="1">
                    <mxGeometry width="72" height="41" as="geometry"/>
                </mxCell>
                <mxCell id="241" value="select_question_id" style="shape=partialRectangle;whiteSpace=wrap;connectable=0;fillColor=none;top=0;left=0;bottom=0;right=0;overflow=hidden;" parent="239" vertex="1">
                    <mxGeometry x="72" width="168" height="41" as="geometry"/>
                </mxCell>
                <mxCell id="242" value="int" style="shape=partialRectangle;whiteSpace=wrap;connectable=0;fillColor=none;top=0;left=0;bottom=0;right=0;overflow=hidden;" parent="239" vertex="1">
                    <mxGeometry x="240" width="90" height="41" as="geometry"/>
                </mxCell>
                <mxCell id="327" value="" style="shape=partialRectangle;whiteSpace=wrap;collapsible=0;dropTarget=0;pointerEvents=0;fillColor=none;top=0;left=0;bottom=0;right=0;points=[[0,0.5],[1,0.5]];portConstraint=eastwest;" parent="206" vertex="1">
                    <mxGeometry y="397" width="330" height="41" as="geometry"/>
                </mxCell>
                <mxCell id="328" value="" style="shape=partialRectangle;whiteSpace=wrap;connectable=0;fillColor=none;top=0;left=0;bottom=0;right=0;overflow=hidden;" parent="327" vertex="1">
                    <mxGeometry width="72" height="41" as="geometry"/>
                </mxCell>
                <mxCell id="329" value="conc_id" style="shape=partialRectangle;whiteSpace=wrap;connectable=0;fillColor=none;top=0;left=0;bottom=0;right=0;overflow=hidden;" parent="327" vertex="1">
                    <mxGeometry x="72" width="168" height="41" as="geometry"/>
                </mxCell>
                <mxCell id="330" value="string" style="shape=partialRectangle;whiteSpace=wrap;connectable=0;fillColor=none;top=0;left=0;bottom=0;right=0;overflow=hidden;" parent="327" vertex="1">
                    <mxGeometry x="240" width="90" height="41" as="geometry"/>
                </mxCell>
                <mxCell id="243" value="" style="shape=partialRectangle;whiteSpace=wrap;collapsible=0;dropTarget=0;pointerEvents=0;fillColor=none;top=0;left=0;bottom=0;right=0;points=[[0,0.5],[1,0.5]];portConstraint=eastwest;" parent="206" vertex="1">
                    <mxGeometry y="438" width="330" height="32" as="geometry"/>
                </mxCell>
                <mxCell id="244" value="" style="shape=partialRectangle;whiteSpace=wrap;connectable=0;fillColor=none;top=0;left=0;bottom=0;right=0;overflow=hidden;" parent="243" vertex="1">
                    <mxGeometry width="72" height="32" as="geometry"/>
                </mxCell>
                <mxCell id="245" value="start_time" style="shape=partialRectangle;whiteSpace=wrap;connectable=0;fillColor=none;top=0;left=0;bottom=0;right=0;overflow=hidden;" parent="243" vertex="1">
                    <mxGeometry x="72" width="168" height="32" as="geometry"/>
                </mxCell>
                <mxCell id="246" value="datetime" style="shape=partialRectangle;whiteSpace=wrap;connectable=0;fillColor=none;top=0;left=0;bottom=0;right=0;overflow=hidden;" parent="243" vertex="1">
                    <mxGeometry x="240" width="90" height="32" as="geometry"/>
                </mxCell>
                <mxCell id="247" value="" style="shape=partialRectangle;whiteSpace=wrap;collapsible=0;dropTarget=0;pointerEvents=0;fillColor=none;top=0;left=0;bottom=0;right=0;points=[[0,0.5],[1,0.5]];portConstraint=eastwest;" parent="206" vertex="1">
                    <mxGeometry y="470" width="330" height="40" as="geometry"/>
                </mxCell>
                <mxCell id="248" value="" style="shape=partialRectangle;whiteSpace=wrap;connectable=0;fillColor=none;top=0;left=0;bottom=0;right=0;overflow=hidden;" parent="247" vertex="1">
                    <mxGeometry width="72" height="40" as="geometry"/>
                </mxCell>
                <mxCell id="249" value="end_time" style="shape=partialRectangle;whiteSpace=wrap;connectable=0;fillColor=none;top=0;left=0;bottom=0;right=0;overflow=hidden;" parent="247" vertex="1">
                    <mxGeometry x="72" width="168" height="40" as="geometry"/>
                </mxCell>
                <mxCell id="250" value="datetime" style="shape=partialRectangle;whiteSpace=wrap;connectable=0;fillColor=none;top=0;left=0;bottom=0;right=0;overflow=hidden;" parent="247" vertex="1">
                    <mxGeometry x="240" width="90" height="40" as="geometry"/>
                </mxCell>
                <mxCell id="251" value="questionnaires" style="shape=table;startSize=30;container=1;collapsible=0;childLayout=tableLayout;fontStyle=1;align=center;fillColor=none;" parent="1" vertex="1">
                    <mxGeometry x="375" y="-400" width="330" height="479" as="geometry"/>
                </mxCell>
                <mxCell id="252" value="" style="shape=partialRectangle;whiteSpace=wrap;collapsible=0;dropTarget=0;pointerEvents=0;fillColor=none;top=0;left=0;bottom=0;right=0;points=[[0,0.5],[1,0.5]];portConstraint=eastwest;" parent="251" vertex="1">
                    <mxGeometry y="30" width="330" height="41" as="geometry"/>
                </mxCell>
                <mxCell id="253" value="PK" style="shape=partialRectangle;whiteSpace=wrap;connectable=0;fillColor=none;top=0;left=0;bottom=0;right=0;overflow=hidden;" parent="252" vertex="1">
                    <mxGeometry width="72" height="41" as="geometry"/>
                </mxCell>
                <mxCell id="254" value="id" style="shape=partialRectangle;whiteSpace=wrap;connectable=0;fillColor=none;top=0;left=0;bottom=0;right=0;overflow=hidden;" parent="252" vertex="1">
                    <mxGeometry x="72" width="171" height="41" as="geometry"/>
                </mxCell>
                <mxCell id="255" value="int" style="shape=partialRectangle;whiteSpace=wrap;connectable=0;fillColor=none;top=0;left=0;bottom=0;right=0;overflow=hidden;" parent="252" vertex="1">
                    <mxGeometry x="243" width="87" height="41" as="geometry"/>
                </mxCell>
                <mxCell id="256" value="" style="shape=partialRectangle;whiteSpace=wrap;collapsible=0;dropTarget=0;pointerEvents=0;fillColor=none;top=0;left=0;bottom=0;right=0;points=[[0,0.5],[1,0.5]];portConstraint=eastwest;" parent="251" vertex="1">
                    <mxGeometry y="71" width="330" height="41" as="geometry"/>
                </mxCell>
                <mxCell id="257" value="" style="shape=partialRectangle;whiteSpace=wrap;connectable=0;fillColor=none;top=0;left=0;bottom=0;right=0;overflow=hidden;" parent="256" vertex="1">
                    <mxGeometry width="72" height="41" as="geometry"/>
                </mxCell>
                <mxCell id="258" value="created_at" style="shape=partialRectangle;whiteSpace=wrap;connectable=0;fillColor=none;top=0;left=0;bottom=0;right=0;overflow=hidden;" parent="256" vertex="1">
                    <mxGeometry x="72" width="171" height="41" as="geometry"/>
                </mxCell>
                <mxCell id="259" value="datetime" style="shape=partialRectangle;whiteSpace=wrap;connectable=0;fillColor=none;top=0;left=0;bottom=0;right=0;overflow=hidden;" parent="256" vertex="1">
                    <mxGeometry x="243" width="87" height="41" as="geometry"/>
                </mxCell>
                <mxCell id="260" value="" style="shape=partialRectangle;whiteSpace=wrap;collapsible=0;dropTarget=0;pointerEvents=0;fillColor=none;top=0;left=0;bottom=0;right=0;points=[[0,0.5],[1,0.5]];portConstraint=eastwest;" parent="251" vertex="1">
                    <mxGeometry y="112" width="330" height="40" as="geometry"/>
                </mxCell>
                <mxCell id="261" value="" style="shape=partialRectangle;whiteSpace=wrap;connectable=0;fillColor=none;top=0;left=0;bottom=0;right=0;overflow=hidden;" parent="260" vertex="1">
                    <mxGeometry width="72" height="40" as="geometry"/>
                </mxCell>
                <mxCell id="262" value="updated_at" style="shape=partialRectangle;whiteSpace=wrap;connectable=0;fillColor=none;top=0;left=0;bottom=0;right=0;overflow=hidden;" parent="260" vertex="1">
                    <mxGeometry x="72" width="171" height="40" as="geometry"/>
                </mxCell>
                <mxCell id="263" value="datetime" style="shape=partialRectangle;whiteSpace=wrap;connectable=0;fillColor=none;top=0;left=0;bottom=0;right=0;overflow=hidden;" parent="260" vertex="1">
                    <mxGeometry x="243" width="87" height="40" as="geometry"/>
                </mxCell>
                <mxCell id="264" value="" style="shape=partialRectangle;whiteSpace=wrap;collapsible=0;dropTarget=0;pointerEvents=0;fillColor=none;top=0;left=0;bottom=0;right=0;points=[[0,0.5],[1,0.5]];portConstraint=eastwest;" parent="251" vertex="1">
                    <mxGeometry y="152" width="330" height="41" as="geometry"/>
                </mxCell>
                <mxCell id="265" value="" style="shape=partialRectangle;whiteSpace=wrap;connectable=0;fillColor=none;top=0;left=0;bottom=0;right=0;overflow=hidden;" parent="264" vertex="1">
                    <mxGeometry width="72" height="41" as="geometry"/>
                </mxCell>
                <mxCell id="266" value="deleted_at" style="shape=partialRectangle;whiteSpace=wrap;connectable=0;fillColor=none;top=0;left=0;bottom=0;right=0;overflow=hidden;" parent="264" vertex="1">
                    <mxGeometry x="72" width="171" height="41" as="geometry"/>
                </mxCell>
                <mxCell id="267" value="datetime" style="shape=partialRectangle;whiteSpace=wrap;connectable=0;fillColor=none;top=0;left=0;bottom=0;right=0;overflow=hidden;" parent="264" vertex="1">
                    <mxGeometry x="243" width="87" height="41" as="geometry"/>
                </mxCell>
                <mxCell id="268" value="" style="shape=partialRectangle;whiteSpace=wrap;collapsible=0;dropTarget=0;pointerEvents=0;fillColor=none;top=0;left=0;bottom=0;right=0;points=[[0,0.5],[1,0.5]];portConstraint=eastwest;" parent="251" vertex="1">
                    <mxGeometry y="193" width="330" height="41" as="geometry"/>
                </mxCell>
                <mxCell id="269" value="FK" style="shape=partialRectangle;whiteSpace=wrap;connectable=0;fillColor=none;top=0;left=0;bottom=0;right=0;overflow=hidden;" parent="268" vertex="1">
                    <mxGeometry width="72" height="41" as="geometry"/>
                </mxCell>
                <mxCell id="270" value="user_id" style="shape=partialRectangle;whiteSpace=wrap;connectable=0;fillColor=none;top=0;left=0;bottom=0;right=0;overflow=hidden;" parent="268" vertex="1">
                    <mxGeometry x="72" width="171" height="41" as="geometry"/>
                </mxCell>
                <mxCell id="271" value="int" style="shape=partialRectangle;whiteSpace=wrap;connectable=0;fillColor=none;top=0;left=0;bottom=0;right=0;overflow=hidden;" parent="268" vertex="1">
                    <mxGeometry x="243" width="87" height="41" as="geometry"/>
                </mxCell>
                <mxCell id="272" value="" style="shape=partialRectangle;whiteSpace=wrap;collapsible=0;dropTarget=0;pointerEvents=0;fillColor=none;top=0;left=0;bottom=0;right=0;points=[[0,0.5],[1,0.5]];portConstraint=eastwest;" parent="251" vertex="1">
                    <mxGeometry y="234" width="330" height="41" as="geometry"/>
                </mxCell>
                <mxCell id="273" value="FK" style="shape=partialRectangle;whiteSpace=wrap;connectable=0;fillColor=none;top=0;left=0;bottom=0;right=0;overflow=hidden;" parent="272" vertex="1">
                    <mxGeometry width="72" height="41" as="geometry"/>
                </mxCell>
                <mxCell id="274" value="answer_result_section_id" style="shape=partialRectangle;whiteSpace=wrap;connectable=0;fillColor=none;top=0;left=0;bottom=0;right=0;overflow=hidden;" parent="272" vertex="1">
                    <mxGeometry x="72" width="171" height="41" as="geometry"/>
                </mxCell>
                <mxCell id="275" value="int" style="shape=partialRectangle;whiteSpace=wrap;connectable=0;fillColor=none;top=0;left=0;bottom=0;right=0;overflow=hidden;" parent="272" vertex="1">
                    <mxGeometry x="243" width="87" height="41" as="geometry"/>
                </mxCell>
                <mxCell id="276" value="" style="shape=partialRectangle;whiteSpace=wrap;collapsible=0;dropTarget=0;pointerEvents=0;fillColor=none;top=0;left=0;bottom=0;right=0;points=[[0,0.5],[1,0.5]];portConstraint=eastwest;" parent="251" vertex="1">
                    <mxGeometry y="275" width="330" height="41" as="geometry"/>
                </mxCell>
                <mxCell id="277" value="" style="shape=partialRectangle;whiteSpace=wrap;connectable=0;fillColor=none;top=0;left=0;bottom=0;right=0;overflow=hidden;" parent="276" vertex="1">
                    <mxGeometry width="72" height="41" as="geometry"/>
                </mxCell>
                <mxCell id="278" value="correct_answer_number" style="shape=partialRectangle;whiteSpace=wrap;connectable=0;fillColor=none;top=0;left=0;bottom=0;right=0;overflow=hidden;" parent="276" vertex="1">
                    <mxGeometry x="72" width="171" height="41" as="geometry"/>
                </mxCell>
                <mxCell id="279" value="int" style="shape=partialRectangle;whiteSpace=wrap;connectable=0;fillColor=none;top=0;left=0;bottom=0;right=0;overflow=hidden;" parent="276" vertex="1">
                    <mxGeometry x="243" width="87" height="41" as="geometry"/>
                </mxCell>
                <mxCell id="280" value="" style="shape=partialRectangle;whiteSpace=wrap;collapsible=0;dropTarget=0;pointerEvents=0;fillColor=none;top=0;left=0;bottom=0;right=0;points=[[0,0.5],[1,0.5]];portConstraint=eastwest;" parent="251" vertex="1">
                    <mxGeometry y="316" width="330" height="41" as="geometry"/>
                </mxCell>
                <mxCell id="281" value="" style="shape=partialRectangle;whiteSpace=wrap;connectable=0;fillColor=none;top=0;left=0;bottom=0;right=0;overflow=hidden;" parent="280" vertex="1">
                    <mxGeometry width="72" height="41" as="geometry"/>
                </mxCell>
                <mxCell id="282" value="concentration" style="shape=partialRectangle;whiteSpace=wrap;connectable=0;fillColor=none;top=0;left=0;bottom=0;right=0;overflow=hidden;" parent="280" vertex="1">
                    <mxGeometry x="72" width="171" height="41" as="geometry"/>
                </mxCell>
                <mxCell id="283" value="int" style="shape=partialRectangle;whiteSpace=wrap;connectable=0;fillColor=none;top=0;left=0;bottom=0;right=0;overflow=hidden;" parent="280" vertex="1">
                    <mxGeometry x="243" width="87" height="41" as="geometry"/>
                </mxCell>
                <mxCell id="284" value="" style="shape=partialRectangle;whiteSpace=wrap;collapsible=0;dropTarget=0;pointerEvents=0;fillColor=none;top=0;left=0;bottom=0;right=0;points=[[0,0.5],[1,0.5]];portConstraint=eastwest;" parent="251" vertex="1">
                    <mxGeometry y="357" width="330" height="41" as="geometry"/>
                </mxCell>
                <mxCell id="285" value="" style="shape=partialRectangle;whiteSpace=wrap;connectable=0;fillColor=none;top=0;left=0;bottom=0;right=0;overflow=hidden;" parent="284" vertex="1">
                    <mxGeometry width="72" height="41" as="geometry"/>
                </mxCell>
                <mxCell id="286" value="while_doing" style="shape=partialRectangle;whiteSpace=wrap;connectable=0;fillColor=none;top=0;left=0;bottom=0;right=0;overflow=hidden;" parent="284" vertex="1">
                    <mxGeometry x="72" width="171" height="41" as="geometry"/>
                </mxCell>
                <mxCell id="287" value="tinyint" style="shape=partialRectangle;whiteSpace=wrap;connectable=0;fillColor=none;top=0;left=0;bottom=0;right=0;overflow=hidden;" parent="284" vertex="1">
                    <mxGeometry x="243" width="87" height="41" as="geometry"/>
                </mxCell>
                <mxCell id="288" value="" style="shape=partialRectangle;whiteSpace=wrap;collapsible=0;dropTarget=0;pointerEvents=0;fillColor=none;top=0;left=0;bottom=0;right=0;points=[[0,0.5],[1,0.5]];portConstraint=eastwest;" parent="251" vertex="1">
                    <mxGeometry y="398" width="330" height="40" as="geometry"/>
                </mxCell>
                <mxCell id="289" value="" style="shape=partialRectangle;whiteSpace=wrap;connectable=0;fillColor=none;top=0;left=0;bottom=0;right=0;overflow=hidden;" parent="288" vertex="1">
                    <mxGeometry width="72" height="40" as="geometry"/>
                </mxCell>
                <mxCell id="290" value="cheating" style="shape=partialRectangle;whiteSpace=wrap;connectable=0;fillColor=none;top=0;left=0;bottom=0;right=0;overflow=hidden;" parent="288" vertex="1">
                    <mxGeometry x="72" width="171" height="40" as="geometry"/>
                </mxCell>
                <mxCell id="291" value="tinyint" style="shape=partialRectangle;whiteSpace=wrap;connectable=0;fillColor=none;top=0;left=0;bottom=0;right=0;overflow=hidden;" parent="288" vertex="1">
                    <mxGeometry x="243" width="87" height="40" as="geometry"/>
                </mxCell>
                <mxCell id="292" value="" style="shape=partialRectangle;whiteSpace=wrap;collapsible=0;dropTarget=0;pointerEvents=0;fillColor=none;top=0;left=0;bottom=0;right=0;points=[[0,0.5],[1,0.5]];portConstraint=eastwest;" parent="251" vertex="1">
                    <mxGeometry y="438" width="330" height="41" as="geometry"/>
                </mxCell>
                <mxCell id="293" value="" style="shape=partialRectangle;whiteSpace=wrap;connectable=0;fillColor=none;top=0;left=0;bottom=0;right=0;overflow=hidden;" parent="292" vertex="1">
                    <mxGeometry width="72" height="41" as="geometry"/>
                </mxCell>
                <mxCell id="294" value="nonsense" style="shape=partialRectangle;whiteSpace=wrap;connectable=0;fillColor=none;top=0;left=0;bottom=0;right=0;overflow=hidden;" parent="292" vertex="1">
                    <mxGeometry x="72" width="171" height="41" as="geometry"/>
                </mxCell>
                <mxCell id="295" value="tinyint" style="shape=partialRectangle;whiteSpace=wrap;connectable=0;fillColor=none;top=0;left=0;bottom=0;right=0;overflow=hidden;" parent="292" vertex="1">
                    <mxGeometry x="243" width="87" height="41" as="geometry"/>
                </mxCell>
                <mxCell id="296" value="select_questions" style="shape=table;startSize=30;container=1;collapsible=0;childLayout=tableLayout;fontStyle=1;align=center;fillColor=none;" parent="1" vertex="1">
                    <mxGeometry x="980" y="210" width="240" height="280" as="geometry"/>
                </mxCell>
                <mxCell id="297" value="" style="shape=partialRectangle;whiteSpace=wrap;collapsible=0;dropTarget=0;pointerEvents=0;fillColor=none;top=0;left=0;bottom=0;right=0;points=[[0,0.5],[1,0.5]];portConstraint=eastwest;" parent="296" vertex="1">
                    <mxGeometry y="30" width="240" height="40" as="geometry"/>
                </mxCell>
                <mxCell id="298" value="PK" style="shape=partialRectangle;whiteSpace=wrap;connectable=0;fillColor=none;top=0;left=0;bottom=0;right=0;overflow=hidden;" parent="297" vertex="1">
                    <mxGeometry width="52" height="40" as="geometry"/>
                </mxCell>
                <mxCell id="299" value="id" style="shape=partialRectangle;whiteSpace=wrap;connectable=0;fillColor=none;top=0;left=0;bottom=0;right=0;overflow=hidden;" parent="297" vertex="1">
                    <mxGeometry x="52" width="125" height="40" as="geometry"/>
                </mxCell>
                <mxCell id="300" value="int" style="shape=partialRectangle;whiteSpace=wrap;connectable=0;fillColor=none;top=0;left=0;bottom=0;right=0;overflow=hidden;" parent="297" vertex="1">
                    <mxGeometry x="177" width="63" height="40" as="geometry"/>
                </mxCell>
                <mxCell id="301" value="" style="shape=partialRectangle;whiteSpace=wrap;collapsible=0;dropTarget=0;pointerEvents=0;fillColor=none;top=0;left=0;bottom=0;right=0;points=[[0,0.5],[1,0.5]];portConstraint=eastwest;" parent="296" vertex="1">
                    <mxGeometry y="70" width="240" height="40" as="geometry"/>
                </mxCell>
                <mxCell id="302" value="" style="shape=partialRectangle;whiteSpace=wrap;connectable=0;fillColor=none;top=0;left=0;bottom=0;right=0;overflow=hidden;" parent="301" vertex="1">
                    <mxGeometry width="52" height="40" as="geometry"/>
                </mxCell>
                <mxCell id="303" value="created_at" style="shape=partialRectangle;whiteSpace=wrap;connectable=0;fillColor=none;top=0;left=0;bottom=0;right=0;overflow=hidden;" parent="301" vertex="1">
                    <mxGeometry x="52" width="125" height="40" as="geometry"/>
                </mxCell>
                <mxCell id="304" value="datetime" style="shape=partialRectangle;whiteSpace=wrap;connectable=0;fillColor=none;top=0;left=0;bottom=0;right=0;overflow=hidden;" parent="301" vertex="1">
                    <mxGeometry x="177" width="63" height="40" as="geometry"/>
                </mxCell>
                <mxCell id="305" value="" style="shape=partialRectangle;whiteSpace=wrap;collapsible=0;dropTarget=0;pointerEvents=0;fillColor=none;top=0;left=0;bottom=0;right=0;points=[[0,0.5],[1,0.5]];portConstraint=eastwest;" parent="296" vertex="1">
                    <mxGeometry y="110" width="240" height="40" as="geometry"/>
                </mxCell>
                <mxCell id="306" value="" style="shape=partialRectangle;whiteSpace=wrap;connectable=0;fillColor=none;top=0;left=0;bottom=0;right=0;overflow=hidden;" parent="305" vertex="1">
                    <mxGeometry width="52" height="40" as="geometry"/>
                </mxCell>
                <mxCell id="307" value="updated_at" style="shape=partialRectangle;whiteSpace=wrap;connectable=0;fillColor=none;top=0;left=0;bottom=0;right=0;overflow=hidden;" parent="305" vertex="1">
                    <mxGeometry x="52" width="125" height="40" as="geometry"/>
                </mxCell>
                <mxCell id="308" value="datetime" style="shape=partialRectangle;whiteSpace=wrap;connectable=0;fillColor=none;top=0;left=0;bottom=0;right=0;overflow=hidden;" parent="305" vertex="1">
                    <mxGeometry x="177" width="63" height="40" as="geometry"/>
                </mxCell>
                <mxCell id="309" value="" style="shape=partialRectangle;whiteSpace=wrap;collapsible=0;dropTarget=0;pointerEvents=0;fillColor=none;top=0;left=0;bottom=0;right=0;points=[[0,0.5],[1,0.5]];portConstraint=eastwest;" parent="296" vertex="1">
                    <mxGeometry y="150" width="240" height="40" as="geometry"/>
                </mxCell>
                <mxCell id="310" value="" style="shape=partialRectangle;whiteSpace=wrap;connectable=0;fillColor=none;top=0;left=0;bottom=0;right=0;overflow=hidden;" parent="309" vertex="1">
                    <mxGeometry width="52" height="40" as="geometry"/>
                </mxCell>
                <mxCell id="311" value="deleted_at" style="shape=partialRectangle;whiteSpace=wrap;connectable=0;fillColor=none;top=0;left=0;bottom=0;right=0;overflow=hidden;" parent="309" vertex="1">
                    <mxGeometry x="52" width="125" height="40" as="geometry"/>
                </mxCell>
                <mxCell id="312" value="datetime" style="shape=partialRectangle;whiteSpace=wrap;connectable=0;fillColor=none;top=0;left=0;bottom=0;right=0;overflow=hidden;" parent="309" vertex="1">
                    <mxGeometry x="177" width="63" height="40" as="geometry"/>
                </mxCell>
                <mxCell id="313" value="" style="shape=partialRectangle;whiteSpace=wrap;collapsible=0;dropTarget=0;pointerEvents=0;fillColor=none;top=0;left=0;bottom=0;right=0;points=[[0,0.5],[1,0.5]];portConstraint=eastwest;" parent="296" vertex="1">
                    <mxGeometry y="190" width="240" height="50" as="geometry"/>
                </mxCell>
                <mxCell id="314" value="" style="shape=partialRectangle;whiteSpace=wrap;connectable=0;fillColor=none;top=0;left=0;bottom=0;right=0;overflow=hidden;" parent="313" vertex="1">
                    <mxGeometry width="52" height="50" as="geometry"/>
                </mxCell>
                <mxCell id="315" value="select_question_name" style="shape=partialRectangle;whiteSpace=wrap;connectable=0;fillColor=none;top=0;left=0;bottom=0;right=0;overflow=hidden;" parent="313" vertex="1">
                    <mxGeometry x="52" width="125" height="50" as="geometry"/>
                </mxCell>
                <mxCell id="316" value="string" style="shape=partialRectangle;whiteSpace=wrap;connectable=0;fillColor=none;top=0;left=0;bottom=0;right=0;overflow=hidden;" parent="313" vertex="1">
                    <mxGeometry x="177" width="63" height="50" as="geometry"/>
                </mxCell>
                <mxCell id="317" value="" style="shape=partialRectangle;whiteSpace=wrap;collapsible=0;dropTarget=0;pointerEvents=0;fillColor=none;top=0;left=0;bottom=0;right=0;points=[[0,0.5],[1,0.5]];portConstraint=eastwest;" parent="296" vertex="1">
                    <mxGeometry y="240" width="240" height="40" as="geometry"/>
                </mxCell>
                <mxCell id="318" value="" style="shape=partialRectangle;whiteSpace=wrap;connectable=0;fillColor=none;top=0;left=0;bottom=0;right=0;overflow=hidden;" parent="317" vertex="1">
                    <mxGeometry width="52" height="40" as="geometry"/>
                </mxCell>
                <mxCell id="319" value="select_question_ids" style="shape=partialRectangle;whiteSpace=wrap;connectable=0;fillColor=none;top=0;left=0;bottom=0;right=0;overflow=hidden;" parent="317" vertex="1">
                    <mxGeometry x="52" width="125" height="40" as="geometry"/>
                </mxCell>
                <mxCell id="320" value="string" style="shape=partialRectangle;whiteSpace=wrap;connectable=0;fillColor=none;top=0;left=0;bottom=0;right=0;overflow=hidden;" parent="317" vertex="1">
                    <mxGeometry x="177" width="63" height="40" as="geometry"/>
                </mxCell>
                <mxCell id="321" value="select_question_ids&#10;&#10;{&#10;    _id: objectID,&#10;   selectquestionids: []int&#10;}" style="shape=note;size=20;fillColor=none;align=left;" parent="1" vertex="1">
                    <mxGeometry x="1030" y="550" width="140" height="140" as="geometry"/>
                </mxCell>
                <mxCell id="322" value="answer_result_ids&#10;&#10;{&#10;    _id: objectID,&#10;   answerresultids: []int&#10;}" style="shape=note;size=20;fillColor=none;align=left;" parent="1" vertex="1">
                    <mxGeometry x="1030" y="710" width="140" height="140" as="geometry"/>
                </mxCell>
                <mxCell id="333" style="edgeStyle=none;html=1;exitX=1;exitY=0.5;exitDx=0;exitDy=0;entryX=1.002;entryY=0.3;entryDx=0;entryDy=0;entryPerimeter=0;startArrow=ERone;startFill=0;endArrow=ERone;endFill=0;" edge="1" parent="1" source="317" target="321">
                    <mxGeometry relative="1" as="geometry">
                        <Array as="points">
                            <mxPoint x="1290" y="470"/>
                            <mxPoint x="1290" y="592"/>
                        </Array>
                    </mxGeometry>
                </mxCell>
                <mxCell id="334" style="edgeStyle=none;html=1;exitX=1;exitY=0.5;exitDx=0;exitDy=0;entryX=1.002;entryY=0.424;entryDx=0;entryDy=0;entryPerimeter=0;startArrow=ERone;startFill=0;endArrow=ERone;endFill=0;" edge="1" parent="1" source="231" target="322">
                    <mxGeometry relative="1" as="geometry">
                        <Array as="points">
                            <mxPoint x="1100" y="-105"/>
                            <mxPoint x="1100" y="180"/>
                            <mxPoint x="1300" y="180"/>
                            <mxPoint x="1300" y="769"/>
                        </Array>
                    </mxGeometry>
                </mxCell>
                <mxCell id="335" style="edgeStyle=none;html=1;exitX=1;exitY=0.5;exitDx=0;exitDy=0;entryX=0.001;entryY=0.683;entryDx=0;entryDy=0;entryPerimeter=0;startArrow=ERone;startFill=0;endArrow=ERone;endFill=0;" edge="1" parent="1" source="138" target="129">
                    <mxGeometry relative="1" as="geometry">
                        <Array as="points">
                            <mxPoint x="360" y="-350"/>
                            <mxPoint x="360" y="90"/>
                            <mxPoint x="730" y="90"/>
                            <mxPoint x="730" y="170"/>
                            <mxPoint x="1090" y="170"/>
                            <mxPoint x="1090" y="97"/>
                        </Array>
                    </mxGeometry>
                </mxCell>
                <mxCell id="336" style="edgeStyle=none;html=1;entryX=1.012;entryY=0.729;entryDx=0;entryDy=0;entryPerimeter=0;startArrow=ERzeroToMany;startFill=1;endArrow=ERone;endFill=0;exitX=0;exitY=0.5;exitDx=0;exitDy=0;" edge="1" parent="1" source="85" target="322">
                    <mxGeometry relative="1" as="geometry">
                        <mxPoint x="1100" y="170" as="sourcePoint"/>
                        <mxPoint x="1170.0000000000002" y="752" as="targetPoint"/>
                        <Array as="points">
                            <mxPoint x="1090" y="-350"/>
                            <mxPoint x="1090" y="170"/>
                            <mxPoint x="1290" y="170"/>
                            <mxPoint x="1289.72" y="630"/>
                            <mxPoint x="1290" y="812"/>
                        </Array>
                    </mxGeometry>
                </mxCell>
                <mxCell id="337" style="edgeStyle=none;html=1;exitX=1;exitY=0.5;exitDx=0;exitDy=0;startArrow=ERzeroToMany;startFill=1;endArrow=ERone;endFill=0;" edge="1" parent="1" source="272">
                    <mxGeometry relative="1" as="geometry">
                        <mxPoint x="748" y="-349" as="targetPoint"/>
                        <Array as="points">
                            <mxPoint x="730" y="-145"/>
                            <mxPoint x="730" y="-349"/>
                        </Array>
                    </mxGeometry>
                </mxCell>
                <mxCell id="339" style="edgeStyle=none;html=1;exitX=1;exitY=0.5;exitDx=0;exitDy=0;entryX=-0.007;entryY=0.683;entryDx=0;entryDy=0;entryPerimeter=0;startArrow=ERzeroToMany;startFill=1;endArrow=ERone;endFill=0;" edge="1" parent="1" source="239" target="297">
                    <mxGeometry relative="1" as="geometry">
                        <Array as="points">
                            <mxPoint x="1100" y="-23"/>
                            <mxPoint x="1100" y="170"/>
                            <mxPoint x="960" y="170"/>
                            <mxPoint x="960" y="267"/>
                        </Array>
                    </mxGeometry>
                </mxCell>
                <mxCell id="340" style="edgeStyle=none;html=1;exitX=1;exitY=0.5;exitDx=0;exitDy=0;entryX=0;entryY=0.5;entryDx=0;entryDy=0;startArrow=ERzeroToMany;startFill=1;endArrow=ERone;endFill=0;" edge="1" parent="1" source="268" target="3">
                    <mxGeometry relative="1" as="geometry">
                        <Array as="points">
                            <mxPoint x="740" y="-186"/>
                            <mxPoint x="740" y="140"/>
                            <mxPoint x="660" y="140"/>
                            <mxPoint x="660" y="260"/>
                        </Array>
                    </mxGeometry>
                </mxCell>
                <mxCell id="341" style="edgeStyle=none;html=1;exitX=0;exitY=0.5;exitDx=0;exitDy=0;startArrow=ERzeroToMany;startFill=1;endArrow=ERone;endFill=0;entryX=0;entryY=0.5;entryDx=0;entryDy=0;" edge="1" parent="1" source="223" target="3">
                    <mxGeometry relative="1" as="geometry">
                        <mxPoint x="730" y="-186" as="targetPoint"/>
                        <Array as="points">
                            <mxPoint x="730" y="-186"/>
                            <mxPoint x="730" y="140"/>
                            <mxPoint x="660" y="140"/>
                            <mxPoint x="660" y="260"/>
                        </Array>
                    </mxGeometry>
                </mxCell>
                <mxCell id="342" style="edgeStyle=none;html=1;exitX=0;exitY=0.5;exitDx=0;exitDy=0;startArrow=ERone;startFill=0;endArrow=ERzeroToMany;endFill=1;" edge="1" parent="1" source="327">
                    <mxGeometry relative="1" as="geometry">
                        <mxPoint x="780" y="591" as="targetPoint"/>
                        <Array as="points">
                            <mxPoint x="720" y="18"/>
                            <mxPoint x="720" y="170"/>
                            <mxPoint x="660" y="170"/>
                            <mxPoint x="660" y="590"/>
                        </Array>
                    </mxGeometry>
                </mxCell>
                <mxCell id="343" style="edgeStyle=none;html=1;exitX=0;exitY=0.5;exitDx=0;exitDy=0;entryX=1;entryY=0.5;entryDx=0;entryDy=0;startArrow=ERzeroToMany;startFill=1;endArrow=ERone;endFill=0;" edge="1" parent="1" source="101" target="3">
                    <mxGeometry relative="1" as="geometry">
                        <Array as="points">
                            <mxPoint x="1090" y="-190"/>
                            <mxPoint x="1090" y="170"/>
                            <mxPoint x="960" y="170"/>
                            <mxPoint x="960" y="260"/>
                        </Array>
                    </mxGeometry>
                </mxCell>
                <mxCell id="344" style="edgeStyle=none;html=1;entryX=1.02;entryY=0.347;entryDx=0;entryDy=0;entryPerimeter=0;startArrow=ERone;startFill=0;endArrow=ERzeroToMany;endFill=1;exitX=0;exitY=0.5;exitDx=0;exitDy=0;" edge="1" parent="1" source="3">
                    <mxGeometry relative="1" as="geometry">
                        <mxPoint x="610" y="420" as="sourcePoint"/>
                        <mxPoint x="290" y="550.4000000000001" as="targetPoint"/>
                        <Array as="points">
                            <mxPoint x="660" y="260"/>
                            <mxPoint x="660" y="420"/>
                            <mxPoint x="360" y="420"/>
                            <mxPoint x="360" y="550"/>
                        </Array>
                    </mxGeometry>
                </mxCell>
                <mxCell id="345" style="edgeStyle=none;html=1;startArrow=ERone;startFill=0;endArrow=ERzeroToMany;endFill=1;" edge="1" parent="1" target="69">
                    <mxGeometry relative="1" as="geometry">
                        <mxPoint x="690" y="260" as="sourcePoint"/>
                        <mxPoint x="300" y="560.4000000000001" as="targetPoint"/>
                        <Array as="points">
                            <mxPoint x="660" y="260"/>
                            <mxPoint x="660" y="420"/>
                            <mxPoint x="360" y="420"/>
                            <mxPoint x="360" y="755"/>
                        </Array>
                    </mxGeometry>
                </mxCell>
                <mxCell id="346" style="edgeStyle=none;html=1;startArrow=ERone;startFill=0;endArrow=ERzeroToMany;endFill=1;exitX=0;exitY=0.5;exitDx=0;exitDy=0;" edge="1" parent="1" source="3" target="73">
                    <mxGeometry relative="1" as="geometry">
                        <mxPoint x="700" y="270" as="sourcePoint"/>
                        <mxPoint x="300" y="765" as="targetPoint"/>
                        <Array as="points">
                            <mxPoint x="660" y="260"/>
                            <mxPoint x="660" y="430"/>
                            <mxPoint x="660" y="660"/>
                            <mxPoint x="560" y="660"/>
                            <mxPoint x="560" y="757"/>
                        </Array>
                    </mxGeometry>
                </mxCell>
                <mxCell id="349" style="edgeStyle=none;html=1;exitX=1;exitY=0.5;exitDx=0;exitDy=0;entryX=0.993;entryY=0.629;entryDx=0;entryDy=0;entryPerimeter=0;startArrow=ERzeroToMany;startFill=1;endArrow=ERone;endFill=0;" edge="1" parent="1" source="138" target="321">
                    <mxGeometry relative="1" as="geometry">
                        <Array as="points">
                            <mxPoint x="360" y="-350"/>
                            <mxPoint x="360" y="90"/>
                            <mxPoint x="730" y="90"/>
                            <mxPoint x="730" y="160"/>
                            <mxPoint x="1320" y="160"/>
                            <mxPoint x="1320" y="638"/>
                        </Array>
                    </mxGeometry>
                </mxCell>
            </root>
        </mxGraphModel>
    </diagram>
</mxfile>